<?xml version="1.0" standalone="no"?>
<!DOCTYPE svg PUBLIC "-//W3C//DTD SVG 20010904//EN"
 "http://www.w3.org/TR/2001/REC-SVG-20010904/DTD/svg10.dtd">
<svg version="1.0" xmlns="http://www.w3.org/2000/svg"
 width="1536.000000pt" height="1536.000000pt" viewBox="0 0 1536.000000 1536.000000"
 preserveAspectRatio="xMidYMid meet">

<g transform="translate(0.000000,1536.000000) scale(0.100000,-0.100000)"
fill="#000000" stroke="none">
<path d="M5743 14103 l-933 -3 0 -570 0 -571 315 2 315 1 0 380 -1 379 616 -1
c338 0 622 -3 630 -6 15 -6 16 7 20 348 0 31 -4 43 -15 43 -8 0 -435 -1 -947
-2z"/>
<path d="M8561 13795 c-1 -168 -4 -312 -7 -320 -4 -8 -2 -15 4 -15 5 0 11 50
14 118 2 64 8 124 12 131 8 12 64 13 340 8 182 -4 457 -7 611 -7 l280 0 0
-374 0 -374 -30 -5 c-16 -3 -159 -3 -317 0 l-288 4 -2 -198 -3 -198 -35 -3
c-34 -3 -89 -46 -76 -60 4 -3 14 4 22 17 11 16 23 21 37 17 12 -3 27 0 34 6
11 8 13 -14 13 -123 0 -94 -3 -130 -11 -122 -6 6 -10 53 -10 112 0 73 -3 101
-12 101 -8 0 -12 -17 -12 -49 0 -49 -8 -71 -22 -57 -4 4 -2 15 4 25 11 18 8
31 -8 31 -4 0 -10 -15 -13 -34 -4 -22 -14 -37 -26 -41 -11 -4 -20 -13 -20 -21
0 -16 36 -19 45 -4 3 5 15 14 25 20 17 9 18 6 17 -25 -2 -31 -5 -35 -22 -29
-41 13 -85 16 -85 6 0 -6 15 -12 33 -15 l32 -3 -32 -8 c-18 -5 -38 -15 -45
-23 -10 -13 -7 -14 24 -8 52 10 56 -10 5 -30 -36 -14 -51 -15 -86 -5 -23 6
-46 8 -51 5 -5 -3 -62 -5 -127 -5 -65 1 -130 1 -145 0 -15 0 -30 4 -33 10 -18
30 -26 -14 -24 -145 0 -79 -1 -147 -4 -152 -2 -4 -4 -34 -2 -66 1 -32 -2 -60
-6 -63 -4 -2 -35 -5 -68 -5 -34 -1 -61 -5 -61 -10 0 -4 30 -7 67 -4 38 2 72 0
78 -4 15 -13 65 -19 71 -10 2 4 21 6 42 5 20 -2 41 1 45 8 6 8 10 8 14 -1 2
-7 11 -13 18 -13 7 0 16 6 18 13 4 9 8 9 15 -2 8 -10 45 -14 161 -16 109 -1
155 -5 164 -15 10 -10 -30 -11 -218 -5 -126 4 -237 7 -245 7 -12 -1 -158 -1
-245 0 -11 0 -33 0 -50 -1 -16 0 -118 1 -225 3 -107 3 -477 5 -822 6 -578 1
-628 2 -638 18 -6 11 -9 -104 -10 -350 l0 -368 -297 -1 c-164 -1 -302 -2 -308
-4 -5 -1 -15 -3 -22 -3 -8 -2 -10 -82 -6 -322 l5 -320 -288 -2 c-159 -1 -298
-2 -309 -2 -19 -1 -20 -9 -23 -301 l-2 -300 -133 4 c-72 2 -210 0 -305 -4
l-172 -7 2 -946 3 -947 85 4 c47 2 182 6 300 10 l215 6 3 614 2 613 315 -3
315 -4 0 307 0 308 1245 0 1244 0 1 -606 c0 -334 2 -610 5 -614 6 -10 -185
-14 -450 -11 l-190 3 -1 -629 c0 -559 -8 -869 -21 -883 -2 -2 -4 232 -3 520 0
289 0 536 -2 549 -2 13 -9 26 -17 29 -9 3 -12 0 -9 -9 3 -8 2 -36 -2 -62 -5
-34 -3 -50 6 -58 16 -13 8 -33 -8 -23 -7 4 -9 -7 -7 -33 4 -35 2 -39 -15 -35
-15 4 -17 1 -11 -17 8 -27 -24 -43 -39 -19 -8 14 -12 13 -23 -9 -7 -14 -13
-45 -13 -69 0 -42 -1 -44 -30 -44 -28 0 -30 -2 -30 -40 0 -37 -2 -40 -28 -40
-15 0 -33 5 -40 12 -9 9 -12 8 -12 -5 0 -18 22 -22 113 -17 29 1 47 -2 47 -9
0 -6 -18 -11 -40 -11 -22 0 -40 -4 -40 -10 0 -5 -18 -10 -40 -10 -38 0 -54
-13 -27 -23 10 -4 10 -7 0 -18 -7 -7 -13 -24 -13 -37 0 -13 -4 -20 -10 -17 -5
3 -10 18 -10 33 0 24 -1 25 -16 10 -20 -20 -12 -48 16 -55 13 -4 20 -14 20
-29 0 -21 -4 -23 -25 -18 -16 4 -30 1 -40 -9 -20 -20 -19 -27 3 -27 22 -1 65
-87 48 -97 -6 -4 -38 -6 -71 -5 -65 2 -98 -5 -90 -18 3 -4 22 -4 42 1 52 12
53 12 53 -10 0 -16 -9 -18 -72 -20 -179 -5 -169 -4 -142 -22 26 -17 22 -29 -8
-29 -10 0 -18 -7 -18 -16 0 -8 -4 -13 -9 -9 -5 3 -12 1 -16 -5 -17 -27 -25 -3
-24 73 2 125 -8 325 -17 338 -5 9 -12 1 -20 -22 -15 -41 -17 -76 -5 -81 10 -3
14 -21 12 -61 -2 -43 -21 -22 -21 24 0 28 -4 39 -15 39 -10 0 -15 -11 -16 -37
-1 -21 0 -42 2 -48 9 -32 4 -87 -9 -92 -8 -3 -17 -1 -21 6 -5 8 -18 5 -47 -9
l-39 -20 43 6 c33 5 42 3 42 -8 0 -8 -10 -20 -22 -26 -23 -11 -23 -11 -2 -11
15 -1 23 -9 27 -30 4 -18 14 -31 29 -36 l23 -8 -25 -4 c-13 -3 -26 0 -28 6 -5
16 -71 13 -88 -3 -8 -8 -14 -31 -14 -50 0 -29 -4 -36 -20 -36 -17 0 -20 7 -20
40 0 22 -4 40 -10 40 -17 0 -11 29 9 39 29 16 35 41 8 41 -17 0 -25 -9 -34
-37 -7 -24 -8 -42 -2 -47 12 -13 11 -44 -3 -105 -12 -53 -28 -68 -28 -27 0 14
-4 28 -10 31 -17 10 -11 -45 6 -63 15 -15 14 -18 -10 -38 -14 -13 -26 -27 -26
-32 0 -5 -18 -17 -41 -27 -26 -12 -36 -21 -27 -24 29 -12 60 -40 54 -50 -4 -5
-2 -12 4 -16 5 -3 10 3 10 14 0 12 7 21 15 21 11 0 15 -11 15 -41 0 -35 -3
-41 -18 -37 -15 4 -17 -1 -14 -34 4 -33 1 -38 -17 -38 -18 0 -21 6 -21 38 0
45 -8 56 -27 41 -10 -9 -13 -6 -13 16 0 22 3 25 14 16 10 -8 16 -8 25 3 9 10
8 16 -3 25 -10 8 -16 9 -21 1 -4 -6 -12 -5 -22 6 -14 13 -15 23 -7 54 10 34 9
37 -8 32 -15 -3 -17 -11 -12 -43 4 -26 3 -39 -5 -39 -6 0 -11 -17 -11 -40 0
-30 4 -40 16 -40 14 0 14 -3 4 -16 -11 -13 -10 -16 8 -21 13 -3 22 -13 22 -24
0 -22 -11 -24 -27 -8 -18 18 -73 20 -73 3 0 -8 -4 -14 -10 -14 -13 0 -13 12 0
46 6 16 7 30 2 33 -5 3 -12 23 -16 44 -6 30 -4 37 9 37 11 0 15 7 13 23 -2 14
-9 21 -21 21 -15 -2 -17 10 -18 110 -2 181 -1 188 13 197 16 10 12 11 -137 8
-116 -1 -247 -15 -172 -18 21 0 37 -6 37 -13 0 -9 3 -9 12 0 15 15 58 16 58 2
0 -5 5 -10 11 -10 5 0 7 5 4 10 -4 7 6 10 25 8 35 -3 53 -18 22 -18 -22 0 -33
-28 -25 -60 3 -11 13 -20 23 -20 25 0 34 -95 11 -129 -11 -18 -12 -26 -3 -29
18 -6 15 -71 -3 -78 -10 -4 -15 -20 -15 -45 0 -28 4 -39 15 -39 11 0 15 11 15
38 0 49 13 63 46 48 19 -9 24 -19 24 -48 0 -21 -4 -38 -10 -38 -5 0 -10 -4
-10 -10 0 -5 9 -10 20 -10 13 0 20 -7 20 -20 0 -25 -28 -27 -37 -2 -4 9 -10
20 -15 23 -11 7 -95 -5 -105 -15 -16 -15 36 -31 95 -29 6 1 12 -3 12 -7 0 -9
-86 -18 -112 -12 -13 3 -18 14 -18 43 0 32 -3 39 -20 39 -17 0 -20 -7 -20 -39
0 -34 -3 -39 -26 -44 -15 -2 -38 -1 -53 3 l-26 8 27 1 c68 2 80 31 12 31 -37
0 -47 -4 -51 -20 -7 -27 -39 -25 -48 3 l-8 22 -4 -22 c-5 -25 -3 -25 -133 -27
l-75 -2 0 273 0 273 105 1 c58 1 198 2 313 3 l207 0 0 638 0 638 -321 0 -321
0 6 -311 7 -311 -25 6 c-34 8 -582 10 -595 2 -7 -5 -11 -111 -11 -319 1 -283
-1 -313 -17 -324 -14 -11 44 -13 304 -13 314 0 363 -5 322 -31 -8 -5 -9 -9 -4
-9 6 0 10 -97 10 -270 l0 -270 -34 -6 c-39 -8 -1198 3 -1211 11 -5 3 -19 1
-33 -4 -14 -5 -27 -8 -30 -5 -2 2 -85 4 -183 4 -98 0 -351 0 -561 0 -332 1
-383 -1 -383 -14 0 -8 4 -17 10 -21 11 -7 2 -35 -11 -35 -5 0 -9 143 -9 330
l0 330 -306 -1 -306 -1 7 -577 c3 -317 3 -585 -1 -594 -3 -9 -12 -17 -20 -17
-12 0 -13 -163 -9 -1087 3 -599 5 -1298 5 -1555 l0 -468 238 0 c228 -1 417
-11 430 -25 4 -4 7 -140 7 -303 l0 -296 593 3 593 3 -1 -324 c-1 -177 2 -408
6 -513 l7 -190 -779 2 c-428 1 -1023 2 -1321 2 -354 1 -543 4 -543 11 0 7 445
9 1311 7 l1311 -2 -6 130 c-3 72 -6 168 -5 213 1 84 1 84 -23 75 -13 -4 -714
-6 -1558 -4 -844 1 -1661 0 -1816 -4 l-281 -7 1 -269 c1 -172 5 -269 11 -269
7 1 2228 -9 2466 -11 19 0 29 -6 32 -20 5 -20 10 -20 589 -17 321 2 589 6 597
8 11 4 13 -29 12 -195 -1 -110 -5 -210 -7 -221 -5 -20 -1 -22 68 -28 40 -3
1601 -5 3468 -4 l3395 3 0 230 0 230 1185 2 c652 2 1193 3 1203 3 16 0 17 20
17 288 l0 287 -1587 0 c-874 0 -1840 2 -2148 5 l-560 5 0 278 0 277 632 -2
632 -3 -2 317 -2 318 -312 1 c-172 1 -319 2 -325 3 -10 1 -13 72 -13 321 l0
320 275 2 c151 2 294 5 318 9 l43 5 -1 297 -2 297 301 3 c236 2 302 0 306 -10
2 -7 6 -292 7 -633 l3 -620 348 -3 c278 -2 347 0 347 10 1 7 2 288 3 623 l3
610 279 2 280 2 8 38 c4 21 7 158 5 306 l-3 267 260 1 c143 1 267 2 275 3 13
1 16 79 20 614 l5 613 313 -1 313 -1 -2 599 -3 599 -141 7 c-77 4 -218 6 -312
6 l-173 -2 -2 1575 c-2 867 -6 1578 -9 1581 -3 3 -122 8 -265 11 l-259 6 -2
1506 -3 1506 -172 -3 c-486 -7 -470 -6 -481 -26 -6 -11 -13 -21 -17 -24 -3 -3
-46 -52 -94 -110 -101 -120 -172 -224 -195 -284 -14 -37 -16 -275 -18 -2441
-2 -1320 0 -2428 3 -2462 l6 -63 34 0 c24 0 33 -4 28 -12 -7 -12 -323 -6 -357
8 -16 6 -17 -12 -17 -247 0 -280 -8 -451 -21 -443 -5 3 -9 14 -9 26 0 16 -5
19 -22 15 -23 -6 -23 -6 1 12 21 16 25 29 29 99 5 82 -4 172 -16 172 -13 0
-29 -69 -19 -79 7 -7 6 -15 -2 -25 -9 -11 -9 -16 0 -21 8 -6 7 -10 -5 -17 -12
-7 -13 -13 -4 -27 9 -15 7 -28 -11 -63 -12 -25 -30 -53 -41 -63 -11 -10 -20
-22 -20 -27 0 -15 59 -8 68 8 6 12 11 13 16 5 4 -7 -5 -18 -23 -29 -37 -20
-35 -33 4 -44 21 -5 34 -3 47 9 17 15 18 15 18 -5 0 -12 -6 -22 -12 -23 -25
-2 -335 3 -440 6 l-108 4 -5 2243 c-3 1234 -8 2632 -11 3107 l-6 864 -349 -6
-350 -6 1 312 1 312 -929 3 -929 2 -2 -305z m1626 -91 c-3 -3 -12 -4 -19 -1
-8 3 -5 6 6 6 11 1 17 -2 13 -5z m2163 -344 c0 -5 -4 -10 -10 -10 -5 0 -10 5
-10 10 0 6 5 10 10 10 6 0 10 -4 10 -10z m-25 -40 c3 -6 -1 -7 -9 -4 -18 7
-21 14 -7 14 6 0 13 -4 16 -10z m-3695 -1260 c0 -5 -5 -10 -11 -10 -5 0 -7 5
-4 10 3 6 8 10 11 10 2 0 4 -4 4 -10z m550 -220 c0 -5 -4 -10 -10 -10 -5 0
-10 5 -10 10 0 6 5 10 10 10 6 0 10 -4 10 -10z m-10 -56 c0 -8 -5 -12 -10 -9
-6 4 -8 11 -5 16 9 14 15 11 15 -7z m31 -153 c0 -35 -3 -66 -6 -69 -3 -3 -5
21 -5 54 0 32 -2 77 -5 99 -5 38 -4 38 5 10 6 -16 11 -59 11 -94z m-1 -245 c0
-71 -3 -126 -7 -123 -3 4 -7 67 -7 141 -1 74 2 129 6 123 4 -7 8 -70 8 -141z
m-3 -258 c-3 -8 -6 -5 -6 6 -1 11 2 17 5 13 3 -3 4 -12 1 -19z m168 -43 c83
-4 176 -7 207 -8 31 -1 60 -5 64 -10 8 -7 -356 0 -414 9 -18 3 -30 9 -27 15 4
5 9 8 13 5 4 -2 75 -7 157 -11z m328 -22 c-7 -2 -21 -2 -30 0 -10 3 -4 5 12 5
17 0 24 -2 18 -5z m150 -63 c-3 -11 -7 -20 -9 -20 -2 0 -4 9 -4 20 0 11 4 20
9 20 5 0 7 -9 4 -20z m1 -183 c3 -76 1 -137 -4 -137 -4 0 -9 64 -9 142 -1 78
1 139 4 136 3 -2 7 -66 9 -141z m4 -232 c1 -25 -1 -27 -8 -10 -5 11 -8 36 -8
55 0 32 1 33 8 10 4 -14 8 -38 8 -55z m-681 -77 c-3 -8 -6 -5 -6 6 -1 11 2 17
5 13 3 -3 4 -12 1 -19z m682 -65 c10 -19 9 -23 -4 -23 -10 0 -15 9 -15 27 0
29 2 29 19 -4z m-3149 7 c0 -5 -4 -10 -10 -10 -5 0 -10 5 -10 10 0 6 5 10 10
10 6 0 10 -4 10 -10z m53 -7 c-7 -2 -19 -2 -25 0 -7 3 -2 5 12 5 14 0 19 -2
13 -5z m3180 -20 c-13 -2 -33 -2 -45 0 -13 2 -3 4 22 4 25 0 35 -2 23 -4z
m524 -665 c-1 -123 -2 -25 -2 217 0 242 1 342 2 223 2 -119 2 -317 0 -440z m0
-370 c-2 -24 -4 -7 -4 37 0 44 2 63 4 43 2 -21 2 -57 0 -80z m0 -200 c-2 -29
-3 -8 -3 47 0 55 1 79 3 53 2 -26 2 -71 0 -100z m0 -120 c-3 -7 -5 -2 -5 12 0
14 2 19 5 13 2 -7 2 -19 0 -25z m0 -85 c-3 -10 -5 -4 -5 12 0 17 2 24 5 18 2
-7 2 -21 0 -30z m0 -145 c-2 -24 -4 -5 -4 42 0 47 2 66 4 43 2 -24 2 -62 0
-85z m13 -99 c0 -5 -4 -9 -10 -9 -5 0 -10 7 -10 16 0 8 5 12 10 9 6 -3 10 -10
10 -16z m-1302 -1131 l-3 -323 -295 0 -295 0 1 315 2 315 23 6 c13 4 147 7
297 8 l272 1 -2 -322z m-1388 247 c0 -8 -4 -15 -10 -15 -5 0 -10 7 -10 15 0 8
5 15 10 15 6 0 10 -7 10 -15z m73 -20 c-2 -7 -13 -10 -25 -7 -13 3 -24 -1 -30
-12 -11 -20 -38 -21 -38 -2 0 8 15 17 36 20 19 4 38 14 41 22 4 12 8 13 13 3
5 -7 6 -18 3 -24z m-3 -60 c0 -8 -2 -15 -4 -15 -2 0 -6 7 -10 15 -3 8 -1 15 4
15 6 0 10 -7 10 -15z m-63 -11 c-3 -3 -12 -4 -19 -1 -8 3 -5 6 6 6 11 1 17 -2
13 -5z m-30 -81 c-3 -2 -17 -3 -32 -1 l-27 3 28 30 29 30 3 -28 c2 -16 1 -31
-1 -34z m3350 -25 c-3 -8 -6 -5 -6 6 -1 11 2 17 5 13 3 -3 4 -12 1 -19z
m-3367 -55 c-14 -3 -29 -11 -33 -19 -12 -20 -27 -17 -27 6 0 17 6 20 43 19 27
-1 33 -3 17 -6z m63 -23 c-6 -24 -26 -21 -31 3 -2 11 3 17 16 17 15 0 19 -5
15 -20z m37 -50 c0 -11 -4 -20 -9 -20 -5 0 -7 9 -4 20 3 11 7 20 9 20 2 0 4
-9 4 -20z m-207 -132 c3 -21 2 -38 -4 -38 -5 0 -9 19 -9 42 0 49 5 47 13 -4z
m95 10 c19 -19 14 -28 -18 -28 -30 0 -42 -16 -16 -22 10 -2 11 -9 4 -28 -8
-19 -12 -21 -16 -10 -3 8 -12 20 -21 27 -11 8 -12 12 -3 13 7 0 12 13 12 30 0
25 4 30 23 30 13 0 28 -5 35 -12z m-526 -50 c-7 -7 -12 -8 -12 -2 0 14 12 26
19 19 2 -3 -1 -11 -7 -17z m578 -4 c0 -3 -7 -12 -15 -20 -8 -9 -15 -13 -15
-11 0 3 -3 12 -6 21 -4 12 0 16 15 16 12 0 21 -3 21 -6z m-620 -60 c0 -8 8
-14 17 -14 13 0 14 -3 5 -12 -8 -8 -15 -8 -27 2 -16 14 -21 55 -5 45 6 -3 10
-13 10 -21z m4515 6 c-3 -5 -10 -10 -16 -10 -5 0 -9 5 -9 10 0 6 7 10 16 10 8
0 12 -4 9 -10z m-3129 -326 l-1 -306 -325 4 c-179 1 -408 1 -509 -2 -134 -3
-186 -1 -188 7 -3 9 45 12 176 11 98 0 184 2 189 6 5 3 151 5 323 3 l314 -2 1
283 2 282 -267 1 c-304 2 -269 2 -300 -3 -13 -1 -26 3 -28 10 -4 9 62 12 305
12 l309 0 -1 -306z m-1166 277 c0 -6 -4 -13 -10 -16 -5 -3 -10 1 -10 9 0 9 5
16 10 16 6 0 10 -4 10 -9z m-173 -33 c-3 -8 -6 -5 -6 6 -1 11 2 17 5 13 3 -3
4 -12 1 -19z m-577 -18 c8 -5 11 -10 5 -10 -5 0 -17 5 -25 10 -8 5 -10 10 -5
10 6 0 17 -5 25 -10z m723 3 c-7 -2 -19 -2 -25 0 -7 3 -2 5 12 5 14 0 19 -2
13 -5z m244 1 c-3 -3 -12 -4 -19 -1 -8 3 -5 6 6 6 11 1 17 -2 13 -5z m-477
-14 c0 -5 18 -10 40 -10 22 0 40 -4 40 -10 0 -5 -8 -10 -17 -10 -10 0 -28 -3
-40 -6 -17 -5 -23 -2 -23 10 0 19 -7 20 -40 1 -35 -20 -40 -19 -40 10 0 23 4
25 40 25 22 0 40 -4 40 -10z m-530 -15 c0 -8 -7 -15 -15 -15 -19 0 -19 -10 -1
-24 13 -9 13 -15 1 -41 l-13 -30 -1 31 c-1 19 -7 34 -16 38 -15 5 -21 37 -8
49 13 13 53 7 53 -8z m690 -65 c0 -77 -12 -91 -27 -31 -8 28 -7 47 3 70 7 17
16 31 19 31 3 0 5 -31 5 -70z m210 60 c0 -5 -4 -10 -10 -10 -5 0 -10 5 -10 10
0 6 5 10 10 10 6 0 10 -4 10 -10z m-855 -20 c3 -5 1 -10 -4 -10 -6 0 -11 5
-11 10 0 6 2 10 4 10 3 0 8 -4 11 -10z m430 -62 c-11 -52 -25 -57 -25 -10 0
32 4 42 16 42 12 0 14 -7 9 -32z m-443 -18 c3 -19 1 -29 -6 -27 -14 4 -21 57
-8 57 5 0 12 -14 14 -30z m386 -42 c-7 -20 -48 -23 -48 -4 0 11 9 16 26 16 16
0 24 -5 22 -12z m112 2 c0 -5 -4 -10 -9 -10 -6 0 -13 5 -16 10 -3 6 1 10 9 10
9 0 16 -4 16 -10z m144 -36 c15 -44 15 -48 -1 -60 -17 -11 -17 -13 2 -34 16
-18 17 -23 5 -30 -19 -12 -50 -13 -50 -1 0 5 6 11 13 14 9 3 9 8 1 17 -13 13
-4 140 10 140 2 0 11 -21 20 -46z m-624 -8 c0 -18 -7 -26 -22 -29 l-23 -4 23
-8 c12 -4 22 -16 22 -26 0 -25 -30 -24 -37 1 -3 11 -11 20 -19 20 -19 0 -25
16 -18 45 5 21 12 25 40 25 29 0 34 -3 34 -24z m411 -19 c-1 -12 -15 -9 -19 4
-3 6 1 10 8 8 6 -3 11 -8 11 -12z m229 -137 c0 -5 -4 -10 -10 -10 -5 0 -10 5
-10 10 0 6 5 10 10 10 6 0 10 -4 10 -10z m3288 -117 c-10 -2 -28 -2 -40 0 -13
2 -5 4 17 4 22 1 32 -1 23 -4z m-3255 -14 c11 8 17 9 22 1 3 -6 11 -8 16 -4 5
3 16 0 25 -6 10 -9 34 -11 77 -6 51 5 59 4 46 -6 -13 -10 -170 -13 -745 -11
-401 1 -733 2 -738 2 -5 1 -4 7 2 14 8 9 141 12 607 11 329 -1 611 2 629 6 17
3 34 2 38 -4 4 -6 12 -5 21 3z m-3155 -74 c-2 -25 -6 -45 -10 -45 -10 0 -11
74 -1 83 12 13 14 7 11 -38z m-483 25 c-3 -5 -16 -10 -28 -10 -18 0 -19 2 -7
10 20 13 43 13 35 0z m65 0 c-8 -5 -19 -10 -25 -10 -5 0 -3 5 5 10 8 5 20 10
25 10 6 0 3 -5 -5 -10z m1060 6 c0 -11 -19 -15 -25 -6 -3 5 1 10 9 10 9 0 16
-2 16 -4z m63 -3 c-7 -2 -21 -2 -30 0 -10 3 -4 5 12 5 17 0 24 -2 18 -5z
m6249 -18 c-2 -14 -8 -25 -12 -25 -4 0 -5 11 -2 25 2 14 8 25 12 25 4 0 5 -11
2 -25z m-7522 -35 c0 -5 -4 -10 -10 -10 -5 0 -10 5 -10 10 0 6 5 10 10 10 6 0
10 -4 10 -10z m7510 -20 c0 -5 -4 -10 -10 -10 -5 0 -10 5 -10 10 0 6 5 10 10
10 6 0 10 -4 10 -10z m-6953 -42 c-3 -7 -5 -2 -5 12 0 14 2 19 5 13 2 -7 2
-19 0 -25z m6944 -141 c-13 -13 -15 31 -3 60 5 14 8 10 10 -16 2 -18 -1 -38
-7 -44z m-6766 -97 c182 -5 521 -14 755 -20 233 -6 438 -12 455 -14 16 -2 89
-7 160 -11 72 -3 162 -8 200 -10 l70 -4 3 -86 c2 -53 -1 -92 -8 -100 -20 -24
-115 -28 -373 -16 -139 6 -362 13 -497 16 -135 4 -297 10 -360 15 -169 13
-610 26 -1028 29 l-133 1 2 112 1 111 212 -7 c116 -4 360 -11 541 -16z m6772
-52 c-3 -8 -6 -5 -6 6 -1 11 2 17 5 13 3 -3 4 -12 1 -19z m0 -75 c-3 -10 -5
-2 -5 17 0 19 2 27 5 18 2 -10 2 -26 0 -35z m10 -63 c1 -11 -2 -20 -8 -20 -5
0 -9 9 -9 20 0 11 4 20 8 20 4 0 8 -9 9 -20z m-8029 -54 c-13 -10 -18 -27 -18
-65 0 -28 -4 -51 -10 -51 -5 0 -7 21 -5 48 2 26 4 55 4 65 1 11 9 17 24 17 20
-1 21 -2 5 -14z m4206 -47 c-3 -44 -14 -49 -14 -6 0 21 4 37 8 37 5 0 7 -14 6
-31z m1253 25 c-3 -3 -12 -4 -19 -1 -8 3 -5 6 6 6 11 1 17 -2 13 -5z m-4342
-69 c366 -10 532 -16 570 -19 42 -4 198 -11 498 -22 99 -4 177 -11 177 -16 0
-5 -47 -7 -117 -4 -65 3 -192 8 -283 12 -91 3 -221 8 -290 10 -69 3 -197 7
-285 10 -170 5 -571 20 -770 30 -210 10 -139 17 105 10 129 -4 307 -9 395 -11z
m-1136 -214 c1 -41 -2 -71 -6 -67 -4 4 -8 60 -9 124 -1 88 1 104 7 67 4 -27 8
-83 8 -124z m2479 152 c-15 -2 -42 -2 -60 0 -18 2 -6 4 27 4 33 0 48 -2 33 -4z
m75 0 c-7 -2 -19 -2 -25 0 -7 3 -2 5 12 5 14 0 19 -2 13 -5z m-1956 -37 c4 -3
-15 -6 -40 -6 -26 0 -47 4 -47 8 0 9 78 8 87 -2z m448 -5 l90 -8 -125 0 c-69
0 -186 3 -260 6 l-135 8 170 0 c94 1 211 -2 260 -6z m-557 -108 c-1 -62 -2
-64 -7 -23 -3 25 -4 55 -2 68 7 42 11 22 9 -45z m682 23 c0 -26 -6 -18 -14 19
-5 22 -4 26 4 15 5 -8 10 -24 10 -34z m-3 -58 c-3 -7 -5 -2 -5 12 0 14 2 19 5
13 2 -7 2 -19 0 -25z m-670 -294 c3 -137 3 -247 0 -244 -2 3 -8 118 -12 255
-4 138 -4 247 -1 244 4 -4 9 -118 13 -255z m-496 -36 c0 -156 2 -728 3 -1273
l1 -990 57 -5 c31 -3 60 -9 65 -14 7 -7 -126 0 -134 7 -2 2 -6 2517 -4 2545 1
6 3 12 6 12 2 0 5 -127 6 -282z m4220 69 c-13 -13 -26 -3 -16 12 3 6 11 8 17
5 6 -4 6 -10 -1 -17z m-2952 -51 c-2 -2 -26 -7 -54 -11 -34 -4 -47 -3 -40 4 6
5 28 11 50 13 40 3 52 1 44 -6z m7381 -259 c0 -146 -3 -279 -6 -296 l-6 -31
-304 0 c-230 0 -305 3 -310 12 -7 11 -8 161 -4 535 l0 33 178 2 c97 2 239 4
315 6 l137 3 0 -264z m-8143 -64 c-3 -10 -5 -4 -5 12 0 17 2 24 5 18 2 -7 2
-21 0 -30z m622 -189 c7 -6 1 -1297 -6 -1304 -3 -3 -119 -5 -259 -5 l-254 0 0
642 c0 352 -3 648 -6 656 -4 11 2 16 18 19 35 5 502 -2 507 -8z m3761 -50 c0
-2 -9 -4 -20 -4 -11 0 -20 4 -20 9 0 5 9 7 20 4 11 -3 20 -7 20 -9z m-1983
-136 c-3 -8 -6 -5 -6 6 -1 11 2 17 5 13 3 -3 4 -12 1 -19z m-2397 -9 c0 -5 -4
-9 -10 -9 -5 0 -10 7 -10 16 0 8 5 12 10 9 6 -3 10 -10 10 -16z m-10 -79 l-7
-45 -2 55 c0 32 3 50 8 45 5 -6 5 -30 1 -55z m3 -141 c-11 -11 -15 70 -5 85 4
6 8 -9 10 -33 2 -24 -1 -48 -5 -52z m-1 -512 c1 -268 -1 -490 -5 -493 -4 -4
-8 132 -9 302 -1 170 -3 329 -4 354 -3 56 8 331 13 327 1 -2 4 -223 5 -490z
m8 -600 c0 -31 -3 -38 -10 -27 -13 20 -13 83 0 75 6 -3 10 -25 10 -48z m-212
-262 c4 -3 -30 -5 -75 -3 -44 1 -79 6 -77 10 6 9 142 3 152 -7z m175 -2 c-23
-2 -64 -2 -90 0 -26 2 -7 3 42 3 50 0 71 -1 48 -3z m3787 -777 c0 -3 -4 -8
-10 -11 -5 -3 -10 -1 -10 4 0 6 5 11 10 11 6 0 10 -2 10 -4z m37 -2 c-3 -3
-12 -4 -19 -1 -8 3 -5 6 6 6 11 1 17 -2 13 -5z m46 -1 c-7 -2 -19 -2 -25 0 -7
3 -2 5 12 5 14 0 19 -2 13 -5z m114 1 c-3 -3 -12 -4 -19 -1 -8 3 -5 6 6 6 11
1 17 -2 13 -5z m331 -1 c-10 -2 -28 -2 -40 0 -13 2 -5 4 17 4 22 1 32 -1 23
-4z m669 1 c-3 -3 -12 -4 -19 -1 -8 3 -5 6 6 6 11 1 17 -2 13 -5z m0 -541 c-3
-10 -5 -4 -5 12 0 17 2 24 5 18 2 -7 2 -21 0 -30z m-1202 -3 c3 -5 -1 -10 -10
-10 -9 0 -13 5 -10 10 3 6 8 10 10 10 2 0 7 -4 10 -10z m468 -7 c-35 -2 -91
-2 -125 0 -35 2 -7 3 62 3 69 0 97 -1 63 -3z m-5288 -33 c-3 -5 -26 -10 -51
-10 -24 0 -44 -4 -44 -10 0 -5 -5 -10 -11 -10 -5 0 -7 5 -4 11 8 12 -45 11
-208 -3 -81 -7 -112 -7 -123 2 -11 10 -14 10 -14 0 0 -8 -4 -9 -12 -3 -21 15
-148 4 -148 -13 0 -19 -16 -18 -24 1 -8 22 -99 20 -121 -2 -13 -13 -18 -14
-25 -3 -4 7 -15 10 -24 7 -10 -4 -16 -1 -16 8 0 18 -26 20 -34 3 -4 -8 -8 -9
-11 -3 -6 12 -126 12 -123 0 2 -5 -10 -12 -27 -16 -21 -6 -34 -4 -46 7 -13 12
-31 13 -85 8 -48 -5 -62 -10 -49 -15 15 -6 16 -8 4 -8 -9 -1 -22 6 -29 14 -16
19 -84 21 -77 1 3 -7 -3 -20 -14 -29 -23 -20 -25 -37 -4 -37 8 0 15 -9 15 -20
0 -11 6 -20 13 -21 10 0 10 -2 0 -6 -19 -7 -16 -50 5 -62 15 -9 15 -10 -5 -11
-20 0 -23 5 -23 38 0 20 -5 44 -10 52 -6 10 -10 11 -10 3 0 -7 -4 -13 -10 -13
-5 0 -10 20 -10 45 0 25 4 45 9 45 5 0 11 7 14 14 4 10 1 13 -7 10 -8 -3 -17
-1 -21 5 -3 6 -5 11 -3 12 2 1 84 3 182 5 99 3 181 6 183 8 9 9 1004 5 998 -4z
m629 1 c11 -4 -61 -8 -159 -9 -115 -1 -181 -6 -185 -13 -4 -6 -39 -12 -79 -13
-55 -2 -71 0 -71 11 0 8 -9 13 -22 12 -46 -4 -88 1 -88 11 0 12 574 12 604 1z
m58 -3 c-9 -9 -15 -9 -24 0 -9 9 -7 12 12 12 19 0 21 -3 12 -12z m55 6 c-3 -3
-12 -4 -19 -1 -8 3 -5 6 6 6 11 1 17 -2 13 -5z m791 -14 c102 0 133 -3 130
-12 -5 -13 -83 -17 -95 -5 -3 4 -12 2 -20 -4 -7 -7 -13 -7 -13 -2 0 6 -53 10
-132 11 -261 1 -289 2 -284 11 3 4 67 7 143 5 76 -2 198 -4 271 -4z m477 0
c-3 -5 -15 -10 -26 -10 -10 0 -19 5 -19 10 0 6 12 10 26 10 14 0 23 -4 19 -10z
m-1048 -6 c-3 -3 -12 -4 -19 -1 -8 3 -5 6 6 6 11 1 17 -2 13 -5z m136 -1 c-7
-2 -19 -2 -25 0 -7 3 -2 5 12 5 14 0 19 -2 13 -5z m647 -4 c0 -5 -16 -9 -35
-9 -19 0 -35 4 -35 8 0 4 16 8 35 9 19 1 35 -3 35 -8z m163 4 c-7 -2 -19 -2
-25 0 -7 3 -2 5 12 5 14 0 19 -2 13 -5z m294 1 c-3 -3 -12 -4 -19 -1 -8 3 -5
6 6 6 11 1 17 -2 13 -5z m-1765 -16 c-9 -9 -15 -9 -24 0 -9 9 -7 12 12 12 19
0 21 -3 12 -12z m98 -9 c0 -5 -4 -9 -10 -9 -5 0 -10 7 -10 16 0 8 5 12 10 9 6
-3 10 -10 10 -16z m39 -6 c0 -25 -1 -25 -8 -8 -5 11 -7 23 -4 28 8 14 13 7 12
-20z m1528 21 c-3 -3 -12 -4 -19 -1 -8 3 -5 6 6 6 11 1 17 -2 13 -5z m-2757
-19 c0 -8 -4 -15 -9 -15 -13 0 -22 16 -14 24 11 11 23 6 23 -9z m550 5 c11 -7
6 -10 -20 -10 -26 0 -31 3 -20 10 8 5 17 10 20 10 3 0 12 -5 20 -10z m807 -12
c-3 -8 -6 -5 -6 6 -1 11 2 17 5 13 3 -3 4 -12 1 -19z m136 15 c-7 -2 -19 -2
-25 0 -7 3 -2 5 12 5 14 0 19 -2 13 -5z m-1925 -12 c10 -6 3 -11 -23 -15 -25
-5 -41 -3 -49 5 -8 9 -6 10 12 6 12 -3 20 -1 16 4 -7 11 26 12 44 0z m537 -1
c3 -5 -3 -10 -14 -10 -12 0 -21 5 -21 10 0 6 6 10 14 10 8 0 18 -4 21 -10z
m1210 0 c3 -5 1 -10 -4 -10 -6 0 -11 5 -11 10 0 6 2 10 4 10 3 0 8 -4 11 -10z
m245 6 c0 -3 -4 -8 -10 -11 -5 -3 -10 -1 -10 4 0 6 5 11 10 11 6 0 10 -2 10
-4z m-2142 -24 c3 -9 -6 -12 -32 -10 -35 2 -43 8 -29 22 11 11 56 2 61 -12z
m1572 8 c12 -8 9 -10 -12 -10 -15 0 -30 5 -33 10 -8 13 25 13 45 0z m158 1
c10 -6 9 -10 -7 -14 -14 -3 -21 0 -21 9 0 16 9 18 28 5z m-873 -11 c3 -5 -3
-10 -14 -10 -12 0 -21 5 -21 10 0 6 6 10 14 10 8 0 18 -4 21 -10z m808 3 c-7
-2 -21 -2 -30 0 -10 3 -4 5 12 5 17 0 24 -2 18 -5z m-1338 -13 c-3 -5 -10 -10
-16 -10 -5 0 -9 5 -9 10 0 6 7 10 16 10 8 0 12 -4 9 -10z m315 0 c0 -5 -9 -10
-20 -10 -11 0 -20 5 -20 10 0 6 9 10 20 10 11 0 20 -4 20 -10z m-515 -19 c-11
-5 -25 -6 -32 -4 -13 5 -73 -27 -73 -39 0 -4 -5 -8 -10 -8 -16 0 9 35 34 47
11 6 39 11 61 11 29 0 35 -1 20 -7z m870 -11 c3 -5 1 -10 -4 -10 -6 0 -11 5
-11 10 0 6 2 10 4 10 3 0 8 -4 11 -10z m60 0 c4 -6 -5 -10 -20 -10 -15 0 -24
4 -20 10 3 6 12 10 20 10 8 0 17 -4 20 -10z m130 0 c18 -8 17 -9 -7 -9 -15 -1
-30 4 -33 9 -7 12 12 12 40 0z m375 6 c0 -3 -4 -8 -10 -11 -5 -3 -10 -1 -10 4
0 6 5 11 10 11 6 0 10 -2 10 -4z m230 -6 c8 -5 13 -10 10 -10 -3 0 -33 -2 -67
-4 -70 -3 -87 11 -20 17 23 2 47 4 52 5 6 1 17 -3 25 -8z m-1490 -10 c0 -5 -7
-10 -16 -10 -8 0 -12 5 -9 10 3 6 10 10 16 10 5 0 9 -4 9 -10z m538 -1 c-30
-17 -20 -28 25 -27 23 1 60 0 82 -1 22 -2 48 0 58 4 12 5 17 3 17 -9 0 -11 -9
-16 -27 -17 -16 0 -82 -2 -148 -4 -123 -4 -225 2 -225 14 0 4 31 5 70 3 83 -5
124 3 117 22 -7 18 -3 21 25 23 20 2 21 1 6 -8z m552 1 c0 -6 -11 -8 -27 -4
-40 10 -41 14 -5 14 18 0 32 -5 32 -10z m240 -5 c0 -9 -6 -12 -15 -9 -8 4 -15
10 -15 15 0 5 7 9 15 9 8 0 15 -7 15 -15z m272 3 c-9 -9 -15 -9 -24 0 -9 9 -7
12 12 12 19 0 21 -3 12 -12z m151 5 c-7 -2 -19 -2 -25 0 -7 3 -2 5 12 5 14 0
19 -2 13 -5z m-948 -22 c16 -7 13 -9 -18 -13 -38 -4 -59 5 -35 15 18 7 30 7
53 -2z m-958 -7 c-3 -3 -12 -4 -19 -1 -8 3 -5 6 6 6 11 1 17 -2 13 -5z m1598
-4 c3 -5 -1 -10 -9 -10 -9 0 -16 5 -16 10 0 6 4 10 9 10 6 0 13 -4 16 -10z
m-98 -6 c-3 -3 -12 -4 -19 -1 -8 3 -5 6 6 6 11 1 17 -2 13 -5z m303 -24 c0 -5
-5 -10 -11 -10 -5 0 -7 5 -4 10 3 6 8 10 11 10 2 0 4 -4 4 -10z m-1361 -26 c2
-2 -16 -4 -42 -4 -28 0 -52 -6 -62 -16 -11 -11 -19 -13 -28 -6 -15 12 -65 13
-73 1 -7 -12 -44 -11 -44 1 0 6 -7 6 -19 -1 -22 -14 -55 -5 -49 14 3 8 37 13
113 14 59 1 110 5 113 7 5 6 83 -4 91 -10z m-694 -4 c3 -5 1 -10 -5 -10 -6 0
-10 -12 -9 -27 1 -16 1 -50 -1 -78 l-3 -50 -6 54 c-11 86 2 146 24 111z m235
-6 c-8 -2 -36 -5 -62 -9 -28 -4 -48 -12 -50 -20 -2 -10 -7 -12 -18 -5 -24 15
3 33 58 40 42 5 110 -1 72 -6z m130 -20 c0 -28 0 -28 -36 -9 -16 8 -38 15 -48
15 -28 0 -13 11 26 19 44 10 58 4 58 -25z m830 20 c0 -2 -9 -4 -20 -4 -11 0
-20 4 -20 9 0 5 9 7 20 4 11 -3 20 -7 20 -9z m550 12 c0 -3 -4 -8 -10 -11 -5
-3 -10 -1 -10 4 0 6 5 11 10 11 6 0 10 -2 10 -4z m140 -6 c0 -5 -8 -10 -17
-10 -15 0 -16 2 -3 10 19 12 20 12 20 0z m-81 -27 c0 -25 -1 -26 -9 -8 -12 27
-12 35 0 35 6 0 10 -12 9 -27z m-1039 7 c0 -5 19 -10 43 -10 32 -1 38 -3 25
-11 -9 -5 -35 -6 -57 -3 -40 6 -48 13 -34 27 10 10 23 8 23 -3z m307 4 c-3 -3
-12 -4 -19 -1 -8 3 -5 6 6 6 11 1 17 -2 13 -5z m170 0 c-3 -3 -12 -4 -19 -1
-8 3 -5 6 6 6 11 1 17 -2 13 -5z m343 -9 c10 -12 10 -15 -4 -15 -9 0 -16 7
-16 15 0 8 2 15 4 15 2 0 9 -7 16 -15z m-47 -2 c-7 -2 -19 -2 -25 0 -7 3 -2 5
12 5 14 0 19 -2 13 -5z m-1478 -23 c0 -8 4 -21 8 -27 6 -9 1 -13 -17 -13 -26
0 -38 19 -13 21 10 0 10 2 0 6 -7 2 -13 11 -13 20 0 19 35 13 35 -7z m650 10
c3 -5 -1 -10 -9 -10 -9 0 -16 5 -16 10 0 6 4 10 9 10 6 0 13 -4 16 -10z m974
6 c-2 -2 -17 -6 -34 -10 -22 -5 -26 -4 -15 4 14 9 59 15 49 6z m241 -16 c0 -5
-4 -10 -10 -10 -5 0 -10 5 -10 10 0 6 5 10 10 10 6 0 10 -4 10 -10z m-1723 -6
c-3 -3 -12 -4 -19 -1 -8 3 -5 6 6 6 11 1 17 -2 13 -5z m133 -3 c0 -11 -57 -20
-82 -13 -35 9 -17 20 32 20 28 1 50 -3 50 -7z m1070 -1 c0 -5 -2 -10 -4 -10
-3 0 -8 5 -11 10 -3 6 -1 10 4 10 6 0 11 -4 11 -10z m1070 -6 c0 -8 -5 -12
-10 -9 -6 4 -8 11 -5 16 9 14 15 11 15 -7z m-1850 -9 c0 -8 -4 -15 -10 -15 -5
0 -10 7 -10 15 0 8 5 15 10 15 6 0 10 -7 10 -15z m-495 -22 c-8 -8 -20 -11
-25 -8 -16 10 8 35 25 28 12 -4 12 -7 0 -20z m92 -9 c-1 -1 -15 0 -32 4 -30 6
-30 6 -5 12 14 4 28 2 32 -4 4 -6 6 -11 5 -12z m360 20 c-3 -3 -12 -4 -19 -1
-8 3 -5 6 6 6 11 1 17 -2 13 -5z m2100 0 c-3 -3 -12 -4 -19 -1 -8 3 -5 6 6 6
11 1 17 -2 13 -5z m-1824 -28 c31 -7 37 -26 7 -26 -11 0 -20 5 -20 10 0 6 -9
10 -20 10 -11 0 -20 -7 -20 -15 0 -8 -5 -15 -11 -15 -5 0 -7 5 -3 11 3 6 1 15
-6 19 -21 13 -2 30 23 20 12 -5 34 -11 50 -14z m70 7 c-5 -14 -1 -15 35 -10
23 3 42 1 42 -3 0 -4 8 -6 19 -3 10 3 22 0 25 -6 5 -8 -16 -11 -68 -11 -75 0
-76 0 -74 25 1 14 8 25 15 25 7 0 10 -7 6 -17z m-413 -4 c11 -7 4 -8 -24 -4
-22 3 -42 8 -45 10 -9 10 54 4 69 -6z m245 1 c4 -6 -10 -10 -34 -10 -23 0 -41
5 -41 10 0 6 15 10 34 10 19 0 38 -4 41 -10z m925 6 c0 -3 -4 -8 -10 -11 -5
-3 -10 -1 -10 4 0 6 5 11 10 11 6 0 10 -2 10 -4z m-377 -13 c-13 -2 -33 -2
-45 0 -13 2 -3 4 22 4 25 0 35 -2 23 -4z m87 -3 c12 -8 12 -10 -5 -9 -11 0
-29 4 -40 9 -18 8 -18 9 5 9 14 0 32 -4 40 -9z m-950 -13 c123 6 264 2 274 -8
6 -5 -35 -9 -100 -9 -60 -1 -143 -2 -184 -3 -68 -2 -75 0 -78 18 -2 12 0 16 5
9 5 -6 37 -9 83 -7z m640 3 c0 -5 -4 -10 -10 -10 -5 0 -10 5 -10 10 0 6 5 10
10 10 6 0 10 -4 10 -10z m-760 -29 c0 -13 -57 -31 -94 -30 -27 1 -25 2 14 11
25 5 49 14 55 19 12 12 25 12 25 0z m-195 -19 c-5 -5 -43 -12 -82 -16 -55 -5
-73 -3 -73 6 0 9 25 14 83 16 52 2 78 0 72 -6z m875 -4 c0 -10 -657 -10 -663
0 -3 4 145 7 329 7 184 0 334 -3 334 -7z m-823 -4 c-3 -3 -12 -4 -19 -1 -8 3
-5 6 6 6 11 1 17 -2 13 -5z m2119 -47 c4 -4 -40 -7 -97 -8 -216 -1 -428 -7
-436 -12 -4 -3 -51 -8 -103 -12 -52 -4 -98 -9 -102 -11 -4 -3 -363 -6 -797 -8
-676 -4 -791 -2 -791 10 0 10 12 14 41 14 26 0 38 4 33 11 -4 6 -20 8 -40 4
-27 -5 -34 -3 -34 10 0 14 105 16 1160 12 638 -2 1163 -6 1166 -10z m1142 -4
c4 -6 52 -17 107 -24 55 -6 104 -16 110 -21 5 -5 2 -8 -9 -8 -28 0 -158 20
-191 30 -61 18 -150 22 -558 25 -230 2 -421 6 -425 10 -4 4 210 5 476 3 345
-2 485 -7 490 -15z m169 3 c3 -3 -12 -6 -35 -6 -23 0 -42 4 -42 8 0 10 67 8
77 -2z m43 6 c0 -13 -12 -22 -22 -16 -10 6 -1 24 13 24 5 0 9 -4 9 -8z m-1297
-9 c-7 -2 -19 -2 -25 0 -7 3 -2 5 12 5 14 0 19 -2 13 -5z"/>
<path d="M8610 7889 c0 -5 5 -7 10 -4 6 3 10 8 10 11 0 2 -4 4 -10 4 -5 0 -10
-5 -10 -11z"/>
<path d="M9136 7885 c4 -8 8 -15 10 -15 2 0 4 7 4 15 0 8 -4 15 -10 15 -5 0
-7 -7 -4 -15z"/>
<path d="M8693 7333 c15 -2 37 -2 50 0 12 2 0 4 -28 4 -27 0 -38 -2 -22 -4z"/>
<path d="M8803 7333 c9 -2 23 -2 30 0 6 3 -1 5 -18 5 -16 0 -22 -2 -12 -5z"/>
<path d="M8850 7336 c0 -10 28 -13 41 -5 10 6 7 9 -13 9 -16 0 -28 -2 -28 -4z"/>
<path d="M9095 7321 c6 -11 45 -10 45 1 0 4 -12 8 -26 8 -14 0 -23 -4 -19 -9z"/>
<path d="M11484 5376 c-3 -9 -11 -13 -17 -9 -6 4 -91 9 -189 11 l-178 4 0 -23
c0 -13 -1 -64 -2 -114 -1 -49 -1 -153 0 -230 2 -155 2 -155 72 -169 26 -5 31
-4 20 3 -11 8 -2 11 38 11 33 0 51 -4 47 -10 -4 -6 8 -10 30 -10 25 0 34 4 29
11 -5 9 2 10 22 5 16 -3 77 -9 135 -12 100 -6 107 -6 112 12 3 14 5 15 6 3 1
-12 11 -15 37 -15 l37 2 1 271 2 271 -98 1 c-80 2 -99 -1 -104 -13z m191 -26
c-3 -5 -19 -10 -36 -10 -16 0 -29 5 -29 10 0 6 16 10 36 10 21 0 33 -4 29 -10z
m-300 -10 c3 -5 1 -10 -4 -10 -6 0 -11 5 -11 10 0 6 2 10 4 10 3 0 8 -4 11
-10z m156 -8 c-13 -2 -27 0 -32 5 -6 6 3 7 23 4 28 -4 29 -6 9 -9z m29 -32 c0
-5 -5 -10 -11 -10 -5 0 -7 5 -4 10 3 6 8 10 11 10 2 0 4 -4 4 -10z m104 -5
c-5 -12 -10 -13 -20 -4 -19 15 -18 19 6 19 13 0 18 -5 14 -15z m-209 -8 c11
-11 10 -15 -6 -25 -28 -18 -89 -16 -89 3 0 9 6 12 15 9 21 -8 67 4 60 16 -9
15 4 12 20 -3z m-307 -19 c-6 -18 -28 -21 -28 -4 0 9 7 16 16 16 9 0 14 -5 12
-12z m382 2 c12 -8 11 -10 -7 -10 -12 0 -25 5 -28 10 -8 13 15 13 35 0z m-270
-25 c0 -8 -9 -15 -20 -15 -11 0 -20 7 -20 15 0 8 9 15 20 15 11 0 20 -7 20
-15z m400 5 c0 -5 -2 -10 -4 -10 -3 0 -8 5 -11 10 -3 6 -1 10 4 10 6 0 11 -4
11 -10z m-53 -22 c-3 -8 -6 -5 -6 6 -1 11 2 17 5 13 3 -3 4 -12 1 -19z m-407
-3 c0 -11 -11 -15 -40 -15 -48 0 -54 17 -7 23 17 2 35 5 40 5 4 1 7 -5 7 -13z
m337 9 c-3 -3 -12 -4 -19 -1 -8 3 -5 6 6 6 11 1 17 -2 13 -5z m-102 -24 c7
-12 -2 -12 -30 0 -19 8 -19 9 2 9 12 1 25 -3 28 -9z m162 -6 c-3 -3 -12 -4
-19 -1 -8 3 -5 6 6 6 11 1 17 -2 13 -5z m-177 -14 c0 -5 -6 -10 -14 -10 -8 0
-18 5 -21 10 -3 6 3 10 14 10 12 0 21 -4 21 -10z m76 -17 c-10 -10 -19 5 -10
18 6 11 8 11 12 0 2 -7 1 -15 -2 -18z m-361 7 c3 -5 1 -10 -4 -10 -6 0 -11 5
-11 10 0 6 2 10 4 10 3 0 8 -4 11 -10z m190 0 c4 -6 -5 -10 -19 -10 -14 0 -26
5 -26 10 0 6 9 10 19 10 11 0 23 -4 26 -10z m135 -21 c0 -6 -4 -7 -10 -4 -5 3
-10 11 -10 16 0 6 5 7 10 4 6 -3 10 -11 10 -16z m110 14 c0 -14 -49 -55 -61
-51 -6 2 1 16 15 31 24 26 46 35 46 20z m-333 -29 c-9 -9 -28 6 -21 18 4 6 10
6 17 -1 6 -6 8 -13 4 -17z m165 -3 c11 -10 18 -29 18 -51 l-1 -35 -14 40 c-8
22 -15 41 -15 43 0 1 -7 2 -15 2 -8 0 -15 7 -15 16 0 16 10 12 42 -15z m213
19 c3 -5 1 -10 -4 -10 -6 0 -11 5 -11 10 0 6 2 10 4 10 3 0 8 -4 11 -10z
m-305 -22 c0 -13 -32 -6 -37 9 -3 7 3 9 16 6 12 -3 21 -10 21 -15z m-175 3 c3
-5 1 -12 -5 -16 -5 -3 -10 1 -10 9 0 18 6 21 15 7z m340 -11 c3 -5 -1 -10 -10
-10 -9 0 -13 5 -10 10 3 6 8 10 10 10 2 0 7 -4 10 -10z m-107 -31 c-3 -8 -7
-3 -11 10 -4 17 -3 21 5 13 5 -5 8 -16 6 -23z m-61 -41 c-2 -13 -4 -3 -4 22 0
25 2 35 4 23 2 -13 2 -33 0 -45z m253 43 c0 -26 -16 -35 -24 -15 -10 25 -7 34
9 34 8 0 15 -9 15 -19z m43 7 c4 -10 7 -10 18 0 18 17 34 15 20 -2 -19 -23
-49 -26 -54 -5 -6 21 9 27 16 7z m41 -34 c16 -6 23 -34 8 -34 -10 0 -32 22
-32 32 0 10 3 10 24 2z m-150 -19 c-4 -8 -10 -15 -14 -15 -4 0 -10 7 -14 15
-4 10 1 15 14 15 13 0 18 -5 14 -15z m113 -17 c-3 -8 -6 -5 -6 6 -1 11 2 17 5
13 3 -3 4 -12 1 -19z m-477 8 c0 -3 -4 -8 -10 -11 -5 -3 -10 -1 -10 4 0 6 5
11 10 11 6 0 10 -2 10 -4z m70 -16 c0 -5 -4 -10 -10 -10 -5 0 -10 5 -10 10 0
6 5 10 10 10 6 0 10 -4 10 -10z m210 -50 c0 -5 -4 -10 -10 -10 -5 0 -10 5 -10
10 0 6 5 10 10 10 6 0 10 -4 10 -10z m240 -43 c-4 -5 -17 -3 -28 4 -16 10 -18
17 -11 31 10 18 11 18 29 -4 10 -13 15 -27 10 -31z m-280 33 c12 -8 11 -10 -7
-10 -13 0 -23 5 -23 10 0 13 11 13 30 0z m-95 -15 c6 -2 -19 -3 -55 -4 -37 0
-57 4 -47 8 17 6 79 4 102 -4z m162 -12 c-3 -3 -11 -2 -17 2 -9 6 -9 10 1 16
14 8 27 -7 16 -18z m133 7 c0 -6 -11 -8 -25 -4 -17 4 -25 2 -25 -7 0 -7 -3
-10 -6 -6 -3 3 -3 10 1 16 8 14 55 14 55 1z m-80 -10 c-19 -13 -30 -13 -30 0
0 6 10 10 23 10 18 0 19 -2 7 -10z m-23 -36 c-3 -3 -12 -4 -19 -1 -8 3 -5 6 6
6 11 1 17 -2 13 -5z m169 -21 c-10 -10 -19 5 -10 18 6 11 8 11 12 0 2 -7 1
-15 -2 -18z m-119 -5 c-3 -8 -6 -5 -6 6 -1 11 2 17 5 13 3 -3 4 -12 1 -19z
m-112 -8 c3 -5 1 -10 -4 -10 -6 0 -11 5 -11 10 0 6 2 10 4 10 3 0 8 -4 11 -10z
m72 -5 c0 -8 -4 -15 -9 -15 -4 0 -8 7 -8 15 0 8 4 15 8 15 5 0 9 -7 9 -15z
m96 -2 c-7 -2 -19 -2 -25 0 -7 3 -2 5 12 5 14 0 19 -2 13 -5z"/>
<path d="M11100 4850 c0 -5 5 -10 10 -10 6 0 10 5 10 10 0 6 -4 10 -10 10 -5
0 -10 -4 -10 -10z"/>
<path d="M3785 4870 c-4 -6 3 -10 14 -10 25 0 27 6 6 13 -8 4 -17 2 -20 -3z"/>
<path d="M3708 4863 c12 -2 30 -2 40 0 9 3 -1 5 -23 4 -22 0 -30 -2 -17 -4z"/>
<path d="M4010 4860 c18 -12 90 -13 90 -2 0 4 -24 9 -52 10 -38 1 -49 -1 -38
-8z"/>
<path d="M4150 4851 c0 -6 4 -13 10 -16 6 -3 7 1 4 9 -7 18 -14 21 -14 7z"/>
<path d="M4068 4818 c9 -9 15 -9 24 0 9 9 7 12 -12 12 -19 0 -21 -3 -12 -12z"/>
<path d="M4140 4780 c-13 -9 -13 -11 0 -19 17 -12 30 -5 30 15 0 16 -9 18 -30
4z"/>
<path d="M3701 4764 c0 -11 3 -14 6 -6 3 7 2 16 -1 19 -3 4 -6 -2 -5 -13z"/>
<path d="M3701 4679 c0 -19 4 -43 9 -54 6 -13 7 -2 3 30 -7 59 -13 72 -12 24z"/>
<path d="M4144 4654 c2 -31 0 -85 -3 -121 -4 -35 -4 -66 0 -69 5 -3 5 -12 2
-22 -5 -14 -4 -15 8 -4 10 10 14 39 12 115 -2 152 -2 157 -13 157 -5 0 -8 -25
-6 -56z"/>
<path d="M3700 4541 c0 -5 5 -13 10 -16 6 -3 10 -2 10 4 0 5 -4 13 -10 16 -5
3 -10 2 -10 -4z"/>
<path d="M3700 4450 c0 -22 2 -40 4 -40 2 0 6 18 8 40 2 22 0 40 -4 40 -5 0
-8 -18 -8 -40z"/>
<path d="M4120 4406 c0 -19 19 -31 31 -19 5 5 0 14 -11 21 -17 10 -20 10 -20
-2z"/>
<path d="M4132 4303 c3 -27 3 -72 -1 -100 -7 -49 7 -113 24 -113 7 0 -4 222
-11 229 -2 2 1 10 7 18 9 10 7 13 -6 13 -15 0 -17 -7 -13 -47z"/>
<path d="M3700 4306 c0 -8 4 -17 9 -20 5 -4 7 3 4 14 -6 23 -13 26 -13 6z"/>
<path d="M4111 4254 c0 -11 3 -14 6 -6 3 7 2 16 -1 19 -3 4 -6 -2 -5 -13z"/>
<path d="M4145 4070 c3 -5 8 -10 11 -10 2 0 4 5 4 10 0 6 -5 10 -11 10 -5 0
-7 -4 -4 -10z"/>
<path d="M4139 4022 c-13 -2 -15 -13 -11 -52 3 -33 1 -50 -7 -50 -6 0 -11 17
-11 40 0 23 -5 40 -11 40 -8 0 -10 -17 -7 -51 4 -35 1 -55 -8 -64 -16 -16 -18
-42 -4 -47 5 -1 7 -13 4 -26 -6 -21 -7 -21 -20 -5 -13 17 -14 17 -20 -4 -8
-28 -27 -35 -89 -36 l-50 0 45 -4 c24 -2 48 -9 52 -16 5 -8 13 -4 27 12 18 21
49 22 36 1 -3 -5 -1 -11 5 -15 12 -8 13 -45 1 -45 -5 0 -11 9 -14 20 -7 27
-33 25 -42 -2 l-8 -23 -4 23 c-4 20 -10 22 -61 21 -61 -2 -76 -12 -61 -41 8
-15 6 -18 -11 -18 -11 0 -20 -4 -20 -10 0 -5 9 -10 20 -10 11 0 20 -7 20 -15
0 -20 -24 -19 -41 1 -10 12 -10 22 -2 43 6 18 7 34 1 45 -5 9 -6 31 -2 49 l6
32 -21 -19 c-12 -11 -20 -25 -17 -32 7 -19 -44 -70 -54 -54 -5 8 -9 9 -14 1
-12 -19 -26 -12 -26 14 0 14 6 25 13 25 8 0 9 2 1 8 -6 4 -15 43 -20 87 l-9
80 -5 -150 c-3 -82 -1 -153 3 -156 4 -3 110 -7 236 -8 l228 -2 -4 68 c-3 37
-9 71 -15 74 -7 4 -6 8 1 10 8 3 11 43 9 134 -3 113 -5 130 -19 127z m-12
-204 c-3 -8 -6 -5 -6 6 -1 11 2 17 5 13 3 -3 4 -12 1 -19z m5 -113 c0 -5 -5
-11 -11 -13 -6 -2 -11 4 -11 13 0 9 5 15 11 13 6 -2 11 -8 11 -13z m-201 -25
c6 0 4 -7 -5 -15 -20 -20 -23 -19 -20 8 4 38 6 43 11 25 2 -10 9 -18 14 -18z
m134 4 c20 -15 20 -16 -4 -12 -14 2 -26 9 -29 16 -5 16 9 15 33 -4z m-275 -10
c0 -2 -13 -4 -30 -4 -16 0 -30 4 -30 8 0 5 14 7 30 4 17 -2 30 -6 30 -8z m-50
-30 c0 -8 -4 -12 -10 -9 -5 3 -10 10 -10 16 0 5 5 9 10 9 6 0 10 -7 10 -16z
m82 4 c-8 -8 -17 -8 -34 0 -22 10 -21 11 12 11 26 1 31 -2 22 -11z m168 8 c0
-11 -19 -15 -25 -6 -3 5 1 10 9 10 9 0 16 -2 16 -4z m87 -12 c-3 -3 -12 -4
-19 -1 -8 3 -5 6 6 6 11 1 17 -2 13 -5z"/>
<path d="M3700 3989 c0 -5 5 -7 10 -4 6 3 10 8 10 11 0 2 -4 4 -10 4 -5 0 -10
-5 -10 -11z"/>
<path d="M3728 3934 c-2 -25 0 -48 4 -50 5 -3 8 18 8 45 0 64 -7 66 -12 5z"/>
<path d="M3985 3910 c4 -6 11 -8 16 -5 14 9 11 15 -7 15 -8 0 -12 -5 -9 -10z"/>
<path d="M4040 3905 c0 -8 5 -15 10 -15 6 0 10 7 10 15 0 8 -4 15 -10 15 -5 0
-10 -7 -10 -15z"/>
<path d="M3940 3862 c0 -18 6 -22 30 -22 38 0 40 -17 3 -22 l-28 -4 29 -9 c21
-5 31 -5 34 3 2 7 11 12 19 12 10 0 13 6 9 16 -3 9 -6 18 -6 21 0 3 -7 0 -15
-7 -11 -9 -15 -9 -15 -1 0 7 -5 9 -11 6 -5 -4 -19 1 -30 11 -18 16 -19 16 -19
-4z"/>
<path d="M3743 3846 c-10 -11 -9 -15 2 -20 10 -4 15 1 15 14 0 23 -1 24 -17 6z"/>
<path d="M1448 1713 c6 -2 18 -2 25 0 6 3 1 5 -13 5 -14 0 -19 -2 -12 -5z"/>
<path d="M2658 1723 c12 -2 32 -2 45 0 12 2 2 4 -23 4 -25 0 -35 -2 -22 -4z"/>
<path d="M2667 1294 c-3 -4 -248 -6 -544 -5 -296 0 -563 -3 -593 -7 -30 -4
-80 -5 -110 -2 -30 3 -73 3 -95 0 -36 -5 -37 -6 -15 -12 25 -7 574 0 598 7 6
3 12 1 12 -3 0 -11 803 -3 814 8 7 7 3 10 -11 10 -12 0 -28 2 -35 5 -8 3 -17
3 -21 -1z"/>
<path d="M1238 1273 c7 -3 16 -2 19 1 4 3 -2 6 -13 5 -11 0 -14 -3 -6 -6z"/>
<path d="M12230 13955 c0 -5 5 -17 10 -25 5 -8 10 -10 10 -5 0 6 -5 17 -10 25
-5 8 -10 11 -10 5z"/>
<path d="M12266 13860 c7 -48 27 -107 30 -95 2 6 -5 37 -16 70 -12 36 -17 46
-14 25z"/>
<path d="M12150 13848 c-12 -22 -12 -22 6 -6 10 10 15 20 12 24 -4 3 -12 -5
-18 -18z"/>
<path d="M12302 13730 c0 -14 2 -19 5 -12 2 6 2 18 0 25 -3 6 -5 1 -5 -13z"/>
<path d="M12050 13690 c-6 -11 -8 -20 -6 -20 3 0 10 9 16 20 6 11 8 20 6 20
-3 0 -10 -9 -16 -20z"/>
<path d="M9200 13584 c0 -60 -1 -217 -1 -349 -1 -151 3 -241 9 -243 11 -3 10
684 -1 695 -4 3 -7 -43 -7 -103z"/>
<path d="M9420 13665 c7 -9 16 -12 19 -8 4 4 10 11 15 16 5 4 -3 7 -19 7 -24
0 -26 -2 -15 -15z"/>
<path d="M12321 13645 c0 -11 6 -47 14 -79 8 -33 12 -63 9 -68 -3 -4 0 -16 5
-25 9 -15 10 -13 10 12 0 35 -37 190 -38 160z"/>
<path d="M6692 13580 c0 -14 2 -19 5 -12 2 6 2 18 0 25 -3 6 -5 1 -5 -13z"/>
<path d="M11965 13570 c-10 -11 -16 -22 -14 -24 2 -2 12 7 22 20 22 29 17 32
-8 4z"/>
<path d="M11902 13473 c-38 -57 -74 -124 -69 -129 2 -2 16 17 31 43 15 27 36
63 48 81 28 45 19 50 -10 5z"/>
<path d="M6690 13003 l0 -448 902 1 c497 1 973 -1 1058 -5 85 -3 173 -3 195 0
39 6 39 7 -15 9 -49 2 -224 9 -242 10 -4 0 -9 194 -10 430 l-3 431 -924 0
c-574 0 -932 4 -943 10 -17 9 -18 -10 -18 -438z"/>
<path d="M9693 13359 c23 -14 22 -45 -3 -52 -11 -3 -20 -11 -19 -19 0 -10 2
-10 6 0 2 6 10 12 16 12 7 0 20 7 30 15 27 20 14 55 -21 55 -23 -1 -25 -2 -9
-11z"/>
<path d="M9772 13335 c0 -16 2 -22 5 -12 2 9 2 23 0 30 -3 6 -5 -1 -5 -18z"/>
<path d="M11816 13313 c-6 -14 -5 -15 5 -6 7 7 10 15 7 18 -3 3 -9 -2 -12 -12z"/>
<path d="M9743 13288 c-27 -7 -32 -14 -38 -48 -6 -35 -10 -40 -28 -35 -12 2
-16 2 -9 -1 22 -10 13 -32 -23 -53 -21 -12 -33 -26 -29 -34 3 -8 -10 -28 -27
-45 l-33 -32 58 0 c31 0 67 -5 78 -11 16 -8 22 -8 29 2 4 7 12 10 16 5 4 -5 2
-11 -4 -13 -7 -3 -13 -11 -13 -19 0 -8 -4 -14 -10 -14 -5 0 -10 6 -10 13 0 8
-17 12 -50 13 -28 1 -50 -3 -50 -7 0 -5 -18 -9 -40 -9 -22 0 -40 -4 -40 -9 0
-11 246 -20 261 -10 11 7 1 39 -12 39 -5 0 -9 5 -9 11 0 6 6 9 14 6 11 -4 13
18 9 126 -2 72 -4 132 -6 132 -1 1 -16 -2 -34 -7z"/>
<path d="M11795 13279 c-27 -75 -35 -106 -34 -133 1 -29 2 -28 9 9 4 22 15 60
24 84 9 24 14 46 11 49 -2 3 -7 -1 -10 -9z"/>
<path d="M11750 13045 c0 -38 3 -66 6 -63 3 4 5 32 5 63 0 31 -2 59 -5 63 -3
3 -6 -25 -6 -63z"/>
<path d="M9405 13040 c-3 -5 -1 -10 4 -10 6 0 11 5 11 10 0 6 -2 10 -4 10 -3
0 -8 -4 -11 -10z"/>
<path d="M9241 13004 c0 -11 3 -14 6 -6 3 7 2 16 -1 19 -3 4 -6 -2 -5 -13z"/>
<path d="M9344 13001 c-15 -16 4 -21 59 -17 34 2 68 5 76 5 8 1 11 4 7 9 -8 7
-134 10 -142 3z"/>
<path d="M9288 12993 c7 -3 16 -2 19 1 4 3 -2 6 -13 5 -11 0 -14 -3 -6 -6z"/>
<path d="M8658 12963 c7 -3 16 -2 19 1 4 3 -2 6 -13 5 -11 0 -14 -3 -6 -6z"/>
<path d="M8748 12963 c7 -3 16 -2 19 1 4 3 -2 6 -13 5 -11 0 -14 -3 -6 -6z"/>
<path d="M3586 12711 c-6 -9 -9 -1051 -3 -1057 1 -2 141 -4 310 -4 l308 -2 0
339 c0 186 -1 427 -1 536 l0 197 -304 0 c-168 0 -307 -4 -310 -9z"/>
<path d="M11770 12699 c0 -11 5 -17 10 -14 6 3 10 13 10 21 0 8 -4 14 -10 14
-5 0 -10 -9 -10 -21z"/>
<path d="M8900 12559 c0 -8 26 -19 46 -19 27 0 14 18 -16 22 -16 3 -30 1 -30
-3z"/>
<path d="M8976 12550 c14 -14 82 -16 96 -2 9 9 -1 12 -47 12 -37 0 -56 -3 -49
-10z"/>
<path d="M8590 12520 c0 -5 5 -10 11 -10 5 0 7 5 4 10 -3 6 -8 10 -11 10 -2 0
-4 -4 -4 -10z"/>
<path d="M8960 12446 c0 -9 5 -16 10 -16 6 0 10 4 10 9 0 6 -4 13 -10 16 -5 3
-10 -1 -10 -9z"/>
<path d="M9020 12440 c9 -17 7 -22 -12 -30 -21 -8 -20 -9 10 -9 17 -1 32 2 32
7 -1 25 -14 52 -27 52 -11 0 -11 -4 -3 -20z"/>
<path d="M8691 12421 c-8 -5 -9 -11 -3 -15 5 -3 15 1 22 9 14 16 3 20 -19 6z"/>
<path d="M8945 12410 c-3 -5 -1 -10 4 -10 6 0 11 5 11 10 0 6 -2 10 -4 10 -3
0 -8 -4 -11 -10z"/>
<path d="M8880 12370 c0 -13 11 -13 30 0 12 8 11 10 -7 10 -13 0 -23 -4 -23
-10z"/>
<path d="M8918 12323 c7 -3 16 -2 19 1 4 3 -2 6 -13 5 -11 0 -14 -3 -6 -6z"/>
<path d="M8565 12290 c-3 -5 -2 -10 4 -10 5 0 13 5 16 10 3 6 2 10 -4 10 -5 0
-13 -4 -16 -10z"/>
<path d="M8480 11920 c0 -5 5 -10 11 -10 5 0 7 5 4 10 -3 6 -8 10 -11 10 -2 0
-4 -4 -4 -10z"/>
<path d="M7935 11820 c-3 -5 -1 -10 4 -10 6 0 11 5 11 10 0 6 -2 10 -4 10 -3
0 -8 -4 -11 -10z"/>
<path d="M8068 11823 c-10 -2 -18 -9 -18 -14 0 -14 16 -11 30 6 7 8 11 14 9
14 -2 -1 -12 -3 -21 -6z"/>
<path d="M8245 11820 c3 -5 8 -10 11 -10 2 0 4 5 4 10 0 6 -5 10 -11 10 -5 0
-7 -4 -4 -10z"/>
<path d="M8310 11810 c0 -5 5 -10 11 -10 5 0 7 5 4 10 -3 6 -8 10 -11 10 -2 0
-4 -4 -4 -10z"/>
<path d="M6630 11801 c0 -6 5 -13 10 -16 6 -3 10 1 10 9 0 9 -4 16 -10 16 -5
0 -10 -4 -10 -9z"/>
<path d="M8368 11803 c6 -2 18 -2 25 0 6 3 1 5 -13 5 -14 0 -19 -2 -12 -5z"/>
<path d="M2940 11435 l0 -215 -320 6 -320 7 0 -406 0 -407 -324 0 -324 0 0
-2770 c0 -1964 -3 -2775 -11 -2784 -6 -7 -9 -15 -7 -17 6 -5 657 -2 662 4 3 2
17 5418 14 5547 0 13 40 15 314 12 l314 -3 6 54 c4 30 6 178 5 329 l-2 273
314 2 314 2 3 291 2 290 -320 0 -320 0 0 -215z m597 113 c-3 -8 -6 -5 -6 6 -1
11 2 17 5 13 3 -3 4 -12 1 -19z m-1200 -560 c-3 -7 -5 -2 -5 12 0 14 2 19 5
13 2 -7 2 -19 0 -25z"/>
<path d="M11761 11614 c0 -11 3 -14 6 -6 3 7 2 16 -1 19 -3 4 -6 -2 -5 -13z"/>
<path d="M5985 11060 c4 -6 11 -8 16 -5 14 9 11 15 -7 15 -8 0 -12 -5 -9 -10z"/>
<path d="M7938 9754 c-3 -3 -151 -6 -329 -6 -349 -1 -471 -7 -409 -18 19 -3
101 -5 183 -5 81 0 147 -2 147 -6 0 -16 33 -17 73 -2 50 18 78 13 73 -14 -3
-16 2 -17 43 -13 46 5 46 5 9 8 -38 3 -50 15 -25 25 8 3 47 1 88 -3 43 -5 79
-4 85 1 14 12 24 1 24 -27 0 -13 5 -26 10 -29 16 -10 11 -25 -6 -18 -13 5 -15
2 -8 -18 12 -35 9 -80 -7 -90 -11 -8 -9 -13 10 -29 20 -17 22 -24 13 -49 -6
-16 -8 -32 -5 -35 3 -3 0 -12 -6 -20 -7 -9 -8 -17 -2 -20 11 -7 6 -361 -6
-379 -6 -10 -6 -313 0 -410 l2 -29 290 2 c160 1 300 2 313 2 l23 0 -4 592 c-3
325 -6 592 -6 592 -1 1 -77 1 -170 0 -93 0 -167 -4 -164 -8 2 -5 -1 -8 -6 -8
-6 0 -11 4 -11 8 0 9 -214 15 -222 6z m562 -365 c0 -6 -4 -7 -10 -4 -5 3 -10
11 -10 16 0 6 5 7 10 4 6 -3 10 -11 10 -16z m-530 -210 c0 -11 -4 -17 -10 -14
-5 3 -10 13 -10 21 0 8 5 14 10 14 6 0 10 -9 10 -21z m10 -153 c0 -8 -4 -18
-10 -21 -5 -3 -10 -4 -10 -1 0 2 -3 11 -6 20 -4 11 -1 16 10 16 9 0 16 -6 16
-14z m-40 -46 c0 -13 -7 -20 -20 -20 -18 0 -19 2 -8 20 7 11 16 20 20 20 5 0
8 -9 8 -20z m30 -190 c0 -5 -4 -10 -10 -10 -5 0 -10 5 -10 10 0 6 5 10 10 10
6 0 10 -4 10 -10z m-26 -45 c8 -21 -3 -45 -21 -45 -10 0 -13 6 -9 16 3 9 6 22
6 30 0 19 16 18 24 -1z m71 -15 c3 -5 1 -10 -4 -10 -6 0 -11 5 -11 10 0 6 2
10 4 10 3 0 8 -4 11 -10z m-65 -80 c0 -5 -7 -10 -15 -10 -8 0 -15 5 -15 10 0
6 7 10 15 10 8 0 15 -4 15 -10z m-6 -45 c-7 -17 -20 -20 -28 -6 -7 10 3 21 20
21 8 0 11 -6 8 -15z"/>
<path d="M6080 9718 c0 -27 1 -28 16 -13 9 9 21 14 28 12 6 -2 16 3 22 11 10
13 19 14 71 3 34 -7 87 -11 119 -9 33 3 69 0 81 -5 15 -7 27 -7 35 0 7 6 27
14 45 17 24 6 34 3 42 -11 9 -14 12 -15 19 -5 8 12 13 12 31 0 18 -11 23 -11
31 2 7 11 29 14 87 14 61 -1 69 1 38 7 -22 4 -181 7 -352 7 l-313 -1 0 -29z"/>
<path d="M7025 9740 c-23 -6 -17 -7 27 -6 31 0 51 4 45 8 -14 9 -31 8 -72 -2z"/>
<path d="M6838 9733 c23 -2 61 -2 85 0 23 2 4 4 -43 4 -47 0 -66 -2 -42 -4z"/>
<path d="M7453 9713 c9 -2 23 -2 30 0 6 3 -1 5 -18 5 -16 0 -22 -2 -12 -5z"/>
<path d="M7471 9699 c-18 -6 -31 -12 -28 -15 8 -8 77 7 77 17 0 11 -4 10 -49
-2z"/>
<path d="M7597 9703 c-11 -11 -8 -23 6 -23 8 0 14 7 14 15 0 16 -9 19 -20 8z"/>
<path d="M11161 9694 c0 -11 3 -14 6 -6 3 7 2 16 -1 19 -3 4 -6 -2 -5 -13z"/>
<path d="M7270 9692 c0 -4 17 -6 38 -4 58 5 62 10 10 11 -27 1 -48 -3 -48 -7z"/>
<path d="M7788 9693 c6 -2 18 -2 25 0 6 3 1 5 -13 5 -14 0 -19 -2 -12 -5z"/>
<path d="M6081 9529 c-1 -86 -4 -178 -8 -204 -5 -38 -3 -47 8 -43 11 4 14 39
14 187 0 100 -3 189 -7 199 -4 9 -7 -53 -7 -139z"/>
<path d="M7740 9670 c0 -5 5 -10 10 -10 6 0 10 5 10 10 0 6 -4 10 -10 10 -5 0
-10 -4 -10 -10z"/>
<path d="M7840 9676 c0 -2 7 -6 15 -10 8 -3 15 -1 15 4 0 6 -7 10 -15 10 -8 0
-15 -2 -15 -4z"/>
<path d="M7450 9650 c0 -5 5 -10 10 -10 6 0 10 5 10 10 0 6 -4 10 -10 10 -5 0
-10 -4 -10 -10z"/>
<path d="M7550 9650 c0 -5 5 -10 10 -10 6 0 10 5 10 10 0 6 -4 10 -10 10 -5 0
-10 -4 -10 -10z"/>
<path d="M7680 9650 c0 -13 20 -13 40 0 12 8 9 10 -12 10 -16 0 -28 -4 -28
-10z"/>
<path d="M7813 9644 c-4 -12 -14 -14 -40 -9 -26 5 -34 3 -31 -6 4 -12 21 -14
91 -10 25 1 26 3 15 21 -15 24 -27 25 -35 4z"/>
<path d="M7490 9625 c0 -8 5 -15 10 -15 6 0 10 7 10 15 0 8 -4 15 -10 15 -5 0
-10 -7 -10 -15z"/>
<path d="M7445 9600 c-3 -6 1 -7 9 -4 18 7 21 14 7 14 -6 0 -13 -4 -16 -10z"/>
<path d="M7693 9603 c9 -2 23 -2 30 0 6 3 -1 5 -18 5 -16 0 -22 -2 -12 -5z"/>
<path d="M7505 9590 c3 -5 8 -10 11 -10 2 0 4 5 4 10 0 6 -5 10 -11 10 -5 0
-7 -4 -4 -10z"/>
<path d="M7775 9590 c4 -6 11 -8 16 -5 14 9 11 15 -7 15 -8 0 -12 -5 -9 -10z"/>
<path d="M7835 9579 c-4 -12 -2 -26 4 -32 8 -8 11 -6 11 7 0 11 8 25 18 32 16
12 15 13 -5 14 -13 0 -24 -8 -28 -21z"/>
<path d="M11161 9534 c0 -11 3 -14 6 -6 3 7 2 16 -1 19 -3 4 -6 -2 -5 -13z"/>
<path d="M7726 9501 c-4 -5 -2 -12 3 -15 5 -4 12 -2 15 3 4 5 2 12 -3 15 -5 4
-12 2 -15 -3z"/>
<path d="M7671 9463 c-7 -8 -10 -17 -7 -20 9 -9 29 13 25 25 -2 6 -10 3 -18
-5z"/>
<path d="M7849 9441 c9 -6 10 -11 2 -15 -6 -4 -11 -15 -11 -24 0 -15 1 -15 16
0 18 18 13 48 -8 48 -10 0 -10 -2 1 -9z"/>
<path d="M1615 9430 c3 -5 8 -10 11 -10 2 0 4 5 4 10 0 6 -5 10 -11 10 -5 0
-7 -4 -4 -10z"/>
<path d="M7820 9341 l-25 -7 28 -6 c19 -4 27 -1 27 8 0 8 -1 14 -2 13 -2 -1
-14 -4 -28 -8z"/>
<path d="M6525 9310 c4 -6 11 -8 16 -5 14 9 11 15 -7 15 -8 0 -12 -5 -9 -10z"/>
<path d="M7601 9304 c0 -11 3 -14 6 -6 3 7 2 16 -1 19 -3 4 -6 -2 -5 -13z"/>
<path d="M7647 9286 c-3 -8 -2 -18 3 -21 13 -8 20 9 11 24 -6 10 -10 9 -14 -3z"/>
<path d="M6076 9218 c-7 -42 3 -66 23 -53 6 3 8 12 4 18 -4 6 -6 26 -4 44 4
48 -15 40 -23 -9z"/>
<path d="M7760 9256 c0 -2 9 -6 20 -9 11 -3 20 -1 20 4 0 5 -9 9 -20 9 -11 0
-20 -2 -20 -4z"/>
<path d="M11161 9234 c0 -11 3 -14 6 -6 3 7 2 16 -1 19 -3 4 -6 -2 -5 -13z"/>
<path d="M7785 9210 c-3 -5 1 -10 9 -10 9 0 16 5 16 10 0 6 -4 10 -9 10 -6 0
-13 -4 -16 -10z"/>
<path d="M6608 9198 c9 -9 15 -9 24 0 9 9 7 12 -12 12 -19 0 -21 -3 -12 -12z"/>
<path d="M5450 9134 c0 -8 5 -12 10 -9 6 4 8 11 5 16 -9 14 -15 11 -15 -7z"/>
<path d="M11162 9110 c0 -17 4 -28 9 -25 11 8 12 55 1 55 -5 0 -9 -14 -10 -30z"/>
<path d="M6030 8957 c0 -36 4 -56 10 -52 13 8 13 75 0 95 -7 11 -10 -2 -10
-43z"/>
<path d="M11742 8940 c0 -14 2 -19 5 -12 2 6 2 18 0 25 -3 6 -5 1 -5 -13z"/>
<path d="M6030 8865 c0 -8 5 -15 10 -15 6 0 10 7 10 15 0 8 -4 15 -10 15 -5 0
-10 -7 -10 -15z"/>
<path d="M11743 8840 c0 -25 2 -35 4 -22 2 12 2 32 0 45 -2 12 -4 2 -4 -23z"/>
<path d="M6168 8583 c7 -3 16 -2 19 1 4 3 -2 6 -13 5 -11 0 -14 -3 -6 -6z"/>
<path d="M6528 8583 c6 -2 18 -2 25 0 6 3 1 5 -13 5 -14 0 -19 -2 -12 -5z"/>
<path d="M6625 8580 c-3 -5 3 -10 15 -10 12 0 18 5 15 10 -3 6 -10 10 -15 10
-5 0 -12 -4 -15 -10z"/>
<path d="M6253 8573 c9 -2 25 -2 35 0 9 3 1 5 -18 5 -19 0 -27 -2 -17 -5z"/>
<path d="M6328 8573 c6 -2 18 -2 25 0 6 3 1 5 -13 5 -14 0 -19 -2 -12 -5z"/>
<path d="M7850 8542 c0 -4 6 -14 13 -21 10 -10 8 -15 -7 -27 -11 -8 -15 -14
-9 -14 7 0 10 -17 9 -42 -1 -24 2 -49 8 -56 6 -8 5 -17 -2 -24 -9 -9 -12 -7
-13 8 0 11 -3 14 -6 6 -3 -7 0 -19 7 -27 13 -16 23 -75 12 -75 -5 0 -13 5 -20
12 -9 9 -12 9 -12 0 0 -10 30 -32 44 -32 3 0 6 52 6 115 0 85 -3 115 -12 115
-10 0 -9 3 1 9 15 10 8 61 -9 61 -6 0 -10 -4 -10 -8z"/>
<path d="M6701 8514 c0 -11 3 -14 6 -6 3 7 2 16 -1 19 -3 4 -6 -2 -5 -13z"/>
<path d="M6690 8451 c0 -22 5 -43 10 -46 6 -4 10 12 10 39 0 25 -4 46 -10 46
-5 0 -10 -18 -10 -39z"/>
<path d="M11172 8460 c0 -14 2 -19 5 -12 2 6 2 18 0 25 -3 6 -5 1 -5 -13z"/>
<path d="M11740 8450 c0 -5 5 -10 10 -10 6 0 10 5 10 10 0 6 -4 10 -10 10 -5
0 -10 -4 -10 -10z"/>
<path d="M11170 8410 c0 -5 5 -10 11 -10 5 0 7 5 4 10 -3 6 -8 10 -11 10 -2 0
-4 -4 -4 -10z"/>
<path d="M6700 8310 c0 -46 2 -81 5 -79 7 8 8 149 1 156 -3 4 -6 -31 -6 -77z"/>
<path d="M7830 8330 c0 -5 5 -10 11 -10 5 0 7 5 4 10 -3 6 -8 10 -11 10 -2 0
-4 -4 -4 -10z"/>
<path d="M11172 8290 c0 -19 2 -27 5 -17 2 9 2 25 0 35 -3 9 -5 1 -5 -18z"/>
<path d="M11173 8200 c0 -25 2 -35 4 -22 2 12 2 32 0 45 -2 12 -4 2 -4 -23z"/>
<path d="M7859 8228 c-6 -20 -2 -67 6 -65 14 5 19 67 6 67 -6 0 -11 -1 -12 -2z"/>
<path d="M6698 8143 c-4 -81 1 -143 10 -143 8 0 7 199 -1 207 -3 2 -7 -26 -9
-64z"/>
<path d="M11172 8120 c0 -14 2 -19 5 -12 2 6 2 18 0 25 -3 6 -5 1 -5 -13z"/>
<path d="M7646 8115 c-3 -8 -1 -15 4 -15 6 0 10 7 10 15 0 8 -2 15 -4 15 -2 0
-6 -7 -10 -15z"/>
<path d="M11171 8064 c0 -11 3 -14 6 -6 3 7 2 16 -1 19 -3 4 -6 -2 -5 -13z"/>
<path d="M11730 8063 c0 -13 5 -23 10 -23 13 0 13 11 0 30 -8 12 -10 11 -10
-7z"/>
<path d="M11780 8070 c-13 -9 -13 -11 0 -20 15 -10 25 0 18 20 -2 6 -8 6 -18
0z"/>
<path d="M11855 8050 c28 -12 55 -12 55 0 0 6 -17 10 -37 9 -31 0 -34 -2 -18
-9z"/>
<path d="M11690 8039 c0 -5 5 -7 10 -4 6 3 10 8 10 11 0 2 -4 4 -10 4 -5 0
-10 -5 -10 -11z"/>
<path d="M11656 8009 c-14 -71 0 -329 18 -329 7 0 10 26 7 78 -2 42 -3 123 -1
180 1 99 -11 136 -24 71z"/>
<path d="M7520 8010 c0 -5 5 -10 11 -10 5 0 7 5 4 10 -3 6 -8 10 -11 10 -2 0
-4 -4 -4 -10z"/>
<path d="M5455 8000 c-3 -5 -1 -10 4 -10 6 0 11 5 11 10 0 6 -2 10 -4 10 -3 0
-8 -4 -11 -10z"/>
<path d="M7585 7981 c-3 -5 -1 -12 5 -16 5 -3 10 1 10 9 0 18 -6 21 -15 7z"/>
<path d="M7655 7981 c-9 -16 33 -32 73 -28 l37 4 -42 1 c-31 2 -43 6 -43 17 0
17 -16 20 -25 6z"/>
<path d="M6700 7971 c0 -6 5 -13 10 -16 6 -3 10 1 10 9 0 9 -4 16 -10 16 -5 0
-10 -4 -10 -9z"/>
<path d="M7787 7973 c-12 -11 -8 -23 7 -23 7 0 19 7 26 15 10 12 9 15 -7 15
-11 0 -23 -3 -26 -7z"/>
<path d="M7760 7930 c0 -5 5 -10 11 -10 5 0 7 5 4 10 -3 6 -8 10 -11 10 -2 0
-4 -4 -4 -10z"/>
<path d="M7522 7895 c0 -16 2 -22 5 -12 2 9 2 23 0 30 -3 6 -5 -1 -5 -18z"/>
<path d="M6700 7848 c-1 -35 -3 -87 -6 -115 -4 -35 -2 -53 5 -53 6 0 11 19 12
43 1 23 3 72 5 109 2 37 -1 70 -6 73 -6 4 -10 -19 -10 -57z"/>
<path d="M7633 7885 c-3 -9 -3 -18 0 -21 7 -8 47 15 47 26 0 16 -40 11 -47 -5z"/>
<path d="M11171 7795 c1 -40 1 -40 11 -12 7 21 7 32 -1 40 -8 8 -11 0 -10 -28z"/>
<path d="M7351 7794 c0 -11 3 -14 6 -6 3 7 2 16 -1 19 -3 4 -6 -2 -5 -13z"/>
<path d="M7620 7800 c-11 -7 -5 -10 23 -10 20 0 37 5 37 10 0 13 -40 13 -60 0z"/>
<path d="M7470 7770 c0 -5 7 -10 15 -10 8 0 15 5 15 10 0 6 -7 10 -15 10 -8 0
-15 -4 -15 -10z"/>
<path d="M7105 7750 c3 -5 8 -10 11 -10 2 0 4 5 4 10 0 6 -5 10 -11 10 -5 0
-7 -4 -4 -10z"/>
<path d="M7540 7722 c0 -23 4 -42 9 -42 6 0 7 17 4 38 -8 51 -13 53 -13 4z"/>
<path d="M7183 7683 c-16 -6 -17 -29 -3 -38 9 -6 40 16 40 28 0 8 -24 14 -37
10z"/>
<path d="M7514 7672 c6 -16 3 -22 -8 -22 -9 0 -16 -5 -16 -11 0 -7 14 -8 43
-4 64 11 77 21 36 30 -19 4 -40 12 -48 19 -11 9 -13 7 -7 -12z"/>
<path d="M7395 7670 c4 -6 11 -8 16 -5 14 9 11 15 -7 15 -8 0 -12 -5 -9 -10z"/>
<path d="M7440 7665 c0 -9 5 -15 11 -13 6 2 11 8 11 13 0 5 -5 11 -11 13 -6 2
-11 -4 -11 -13z"/>
<path d="M6692 7583 c2 -54 7 -88 15 -90 12 -4 15 40 7 125 -9 86 -25 60 -22
-35z"/>
<path d="M11160 7660 c0 -5 5 -10 10 -10 6 0 10 5 10 10 0 6 -4 10 -10 10 -5
0 -10 -4 -10 -10z"/>
<path d="M7340 7601 c0 -12 6 -21 16 -21 9 0 14 7 12 17 -5 25 -28 28 -28 4z"/>
<path d="M7425 7610 c-4 -7 3 -8 22 -4 38 9 42 14 10 14 -14 0 -29 -5 -32 -10z"/>
<path d="M7520 7610 c0 -5 -7 -10 -16 -10 -14 0 -14 -3 -4 -15 7 -8 16 -15 21
-15 5 0 9 7 9 15 0 10 10 15 27 15 31 0 28 5 -9 14 -17 4 -28 2 -28 -4z"/>
<path d="M7440 7584 c0 -14 3 -14 15 -4 8 7 15 14 15 16 0 2 -7 4 -15 4 -8 0
-15 -7 -15 -16z"/>
<path d="M7401 7576 c-9 -11 -9 -19 1 -35 19 -30 25 -26 20 14 -5 40 -5 40
-21 21z"/>
<path d="M7440 7536 c0 -9 5 -16 10 -16 6 0 10 4 10 9 0 6 -4 13 -10 16 -5 3
-10 -1 -10 -9z"/>
<path d="M7507 7544 c-13 -13 -7 -24 14 -24 11 0 19 5 17 12 -5 14 -22 21 -31
12z"/>
<path d="M7345 7530 c-3 -5 1 -10 9 -10 9 0 16 5 16 10 0 6 -4 10 -9 10 -6 0
-13 -4 -16 -10z"/>
<path d="M6700 7471 c0 -5 5 -13 10 -16 6 -3 10 -2 10 4 0 5 -4 13 -10 16 -5
3 -10 2 -10 -4z"/>
<path d="M7351 7444 c0 -11 3 -14 6 -6 3 7 2 16 -1 19 -3 4 -6 -2 -5 -13z"/>
<path d="M7273 7435 c-3 -9 -3 -18 -1 -21 3 -3 8 4 11 16 6 23 -1 27 -10 5z"/>
<path d="M6707 7433 c-5 -8 -11 -141 -8 -177 2 -34 15 -7 17 37 1 23 5 63 8
89 5 42 -5 71 -17 51z"/>
<path d="M7122 7400 c0 -14 2 -19 5 -12 2 6 2 18 0 25 -3 6 -5 1 -5 -13z"/>
<path d="M11570 7389 c0 -5 5 -7 10 -4 6 3 10 8 10 11 0 2 -4 4 -10 4 -5 0
-10 -5 -10 -11z"/>
<path d="M7310 7370 c0 -5 5 -10 10 -10 6 0 10 5 10 10 0 6 -4 10 -10 10 -5 0
-10 -4 -10 -10z"/>
<path d="M7368 7353 c6 -2 18 -2 25 0 6 3 1 5 -13 5 -14 0 -19 -2 -12 -5z"/>
<path d="M6910 7330 c0 -5 4 -10 9 -10 6 0 13 5 16 10 3 6 -1 10 -9 10 -9 0
-16 -4 -16 -10z"/>
<path d="M7310 7330 c0 -5 5 -10 10 -10 6 0 10 5 10 10 0 6 -4 10 -10 10 -5 0
-10 -4 -10 -10z"/>
<path d="M7371 7330 c-9 -5 -8 -9 5 -14 9 -4 21 -3 26 2 12 12 -15 23 -31 12z"/>
<path d="M11177 7317 c-3 -9 -2 -19 4 -23 15 -9 18 -2 9 20 -6 17 -7 18 -13 3z"/>
<path d="M11226 7298 c7 -10 254 -6 254 4 0 4 -58 7 -130 6 -73 -1 -127 -5
-124 -10z"/>
<path d="M6908 7283 c6 -2 18 -2 25 0 6 3 1 5 -13 5 -14 0 -19 -2 -12 -5z"/>
<path d="M6833 7273 c9 -2 25 -2 35 0 9 3 1 5 -18 5 -19 0 -27 -2 -17 -5z"/>
<path d="M7254 7266 c-4 -10 -2 -22 4 -28 8 -8 13 -7 18 6 4 10 2 22 -4 28 -8
8 -13 7 -18 -6z"/>
<path d="M4190 7257 c15 -8 28 -10 31 -4 4 6 15 7 25 3 9 -4 101 -6 203 -6
258 1 313 0 324 -7 4 -3 7 -34 6 -69 -1 -35 1 -67 4 -70 4 -4 3 -12 -1 -18 -4
-6 -7 -36 -7 -66 0 -39 -4 -54 -12 -52 -7 1 -13 -5 -13 -13 0 -8 7 -15 15 -15
13 0 15 -13 11 -86 -4 -63 -2 -84 7 -81 9 3 13 70 15 250 l2 247 -317 0 c-267
0 -314 -2 -293 -13z"/>
<path d="M4162 6981 c2 -175 7 -270 13 -268 16 6 13 529 -4 535 -10 3 -12 -51
-9 -267z"/>
<path d="M6065 7232 c-13 -13 -1 -17 50 -17 30 0 55 5 55 10 0 10 -95 17 -105
7z"/>
<path d="M6210 7232 c0 -13 82 -22 95 -11 5 5 0 9 -12 9 -11 0 -35 3 -52 6
-18 4 -31 2 -31 -4z"/>
<path d="M6430 7170 c0 -16 5 -30 10 -30 6 0 10 14 10 30 0 17 -4 30 -10 30
-5 0 -10 -13 -10 -30z"/>
<path d="M6061 7084 c0 -11 3 -14 6 -6 3 7 2 16 -1 19 -3 4 -6 -2 -5 -13z"/>
<path d="M6701 7024 c0 -11 3 -14 6 -6 3 7 2 16 -1 19 -3 4 -6 -2 -5 -13z"/>
<path d="M6860 7026 c0 -8 5 -18 10 -21 6 -3 10 3 10 14 0 12 -4 21 -10 21 -5
0 -10 -6 -10 -14z"/>
<path d="M6830 6980 c-9 -17 -8 -20 10 -20 13 0 20 7 20 20 0 11 -4 20 -10 20
-5 0 -14 -9 -20 -20z"/>
<path d="M4598 6953 c7 -3 16 -2 19 1 4 3 -2 6 -13 5 -11 0 -14 -3 -6 -6z"/>
<path d="M4653 6953 c9 -2 23 -2 30 0 6 3 -1 5 -18 5 -16 0 -22 -2 -12 -5z"/>
<path d="M4625 6900 c3 -5 12 -7 19 -4 8 3 17 1 21 -5 3 -6 15 -11 27 -11 17
0 18 2 8 15 -13 16 -85 21 -75 5z"/>
<path d="M6071 6894 c0 -11 3 -14 6 -6 3 7 2 16 -1 19 -3 4 -6 -2 -5 -13z"/>
<path d="M6072 6840 c0 -14 2 -19 5 -12 2 6 2 18 0 25 -3 6 -5 1 -5 -13z"/>
<path d="M6445 6850 c-4 -6 5 -10 19 -10 14 0 26 5 26 10 0 6 -9 10 -19 10
-11 0 -23 -4 -26 -10z"/>
<path d="M6560 6830 c0 -16 5 -30 10 -30 6 0 10 14 10 30 0 17 -4 30 -10 30
-5 0 -10 -13 -10 -30z"/>
<path d="M4560 6840 c0 -5 5 -10 11 -10 5 0 7 5 4 10 -3 6 -8 10 -11 10 -2 0
-4 -4 -4 -10z"/>
<path d="M1611 6824 c0 -11 3 -14 6 -6 3 7 2 16 -1 19 -3 4 -6 -2 -5 -13z"/>
<path d="M4637 6806 c-4 -10 -1 -13 8 -9 8 3 12 9 9 14 -7 12 -11 11 -17 -5z"/>
<path d="M4705 6810 c-3 -5 -1 -10 4 -10 6 0 11 -7 11 -15 0 -13 4 -12 22 5
12 11 18 23 15 27 -4 3 -7 1 -7 -6 0 -8 -5 -9 -19 -1 -13 7 -22 7 -26 0z"/>
<path d="M6240 6812 c0 -7 -18 -13 -42 -14 l-43 -1 39 -4 c37 -4 67 9 53 24
-4 3 -7 1 -7 -5z"/>
<path d="M6278 6802 c-20 -4 -24 -27 -7 -38 6 -3 15 -2 21 4 15 15 5 38 -14
34z"/>
<path d="M6720 6785 c0 -9 5 -15 11 -13 6 2 11 8 11 13 0 5 -5 11 -11 13 -6 2
-11 -4 -11 -13z"/>
<path d="M4675 6770 c4 -6 11 -8 16 -5 14 9 11 15 -7 15 -8 0 -12 -5 -9 -10z"/>
<path d="M4595 6760 c-3 -5 1 -10 9 -10 9 0 16 5 16 10 0 6 -4 10 -9 10 -6 0
-13 -4 -16 -10z"/>
<path d="M4767 6738 c-10 -11 -16 -22 -14 -25 7 -7 47 16 47 27 0 18 -15 17
-33 -2z"/>
<path d="M4365 6730 c-3 -5 -1 -10 4 -10 6 0 11 5 11 10 0 6 -2 10 -4 10 -3 0
-8 -4 -11 -10z"/>
<path d="M4479 6727 c5 -5 21 -7 37 -5 27 3 26 4 -8 9 -22 3 -34 1 -29 -4z"/>
<path d="M4625 6731 c-7 -12 25 -30 43 -24 10 4 10 8 1 19 -13 16 -35 18 -44
5z"/>
<path d="M4720 6720 c0 -5 5 -10 10 -10 6 0 10 5 10 10 0 6 -4 10 -10 10 -5 0
-10 -4 -10 -10z"/>
<path d="M1613 5955 c0 -22 2 -30 4 -17 2 12 2 30 0 40 -3 9 -5 -1 -4 -23z"/>
<path d="M2331 5954 c0 -11 3 -14 6 -6 3 7 2 16 -1 19 -3 4 -6 -2 -5 -13z"/>
<path d="M1613 5845 c0 -27 2 -38 4 -22 2 15 2 37 0 50 -2 12 -4 0 -4 -28z"/>
<path d="M10480 3580 c0 -5 5 -10 10 -10 6 0 10 5 10 10 0 6 -4 10 -10 10 -5
0 -10 -4 -10 -10z"/>
<path d="M9978 2303 c7 -3 16 -2 19 1 4 3 -2 6 -13 5 -11 0 -14 -3 -6 -6z"/>
<path d="M10968 2293 c7 -3 16 -2 19 1 4 3 -2 6 -13 5 -11 0 -14 -3 -6 -6z"/>
<path d="M3606 1152 c-6 -10 -2 -390 5 -396 2 -2 267 -6 589 -10 l585 -6 0 52
c0 29 2 121 4 203 l4 150 -580 1 c-319 1 -585 4 -591 8 -6 3 -13 3 -16 -2z
m46 -189 c-2 -128 -4 -147 -11 -70 -6 72 -2 172 6 163 3 -3 5 -45 5 -93z m13
-163 c3 -6 -1 -13 -10 -16 -19 -8 -30 0 -20 15 8 14 22 14 30 1z m905 -15 c0
-8 -7 -15 -15 -15 -26 0 -18 20 13 29 1 1 2 -6 2 -14z m-747 -2 c-13 -2 -33
-2 -45 0 -13 2 -3 4 22 4 25 0 35 -2 23 -4z m250 0 c-7 -2 -19 -2 -25 0 -7 3
-2 5 12 5 14 0 19 -2 13 -5z m60 0 c-7 -2 -19 -2 -25 0 -7 3 -2 5 12 5 14 0
19 -2 13 -5z m137 -5 c0 -11 -47 -10 -55 1 -3 5 8 9 25 9 16 -1 30 -5 30 -10z
m73 -5 c-7 -2 -19 -2 -25 0 -7 3 -2 5 12 5 14 0 19 -2 13 -5z m65 0 c-10 -2
-26 -2 -35 0 -10 3 -2 5 17 5 19 0 27 -2 18 -5z m335 0 c-7 -2 -19 -2 -25 0
-7 3 -2 5 12 5 14 0 19 -2 13 -5z"/>
</g>
</svg>
